<svg width="38" height="38" viewBox="0 0 38 38" fill="none" xmlns="http://www.w3.org/2000/svg">
<path d="M33.2025 9.8192L20.14 2.67193C19.791 2.47909 19.3988 2.37793 19 2.37793C18.6012 2.37793 18.209 2.47909 17.86 2.67193L4.7975 9.82217C4.42446 10.0263 4.11306 10.3268 3.89582 10.6923C3.67858 11.0579 3.56347 11.4751 3.5625 11.9003V26.0969C3.56347 26.5221 3.67858 26.9393 3.89582 27.3048C4.11306 27.6704 4.42446 27.9709 4.7975 28.175L17.86 35.3252C18.209 35.5181 18.6012 35.6192 19 35.6192C19.3988 35.6192 19.791 35.5181 20.14 35.3252L33.2025 28.175C33.5755 27.9709 33.8869 27.6704 34.1042 27.3048C34.3214 26.9393 34.4365 26.5221 34.4375 26.0969V11.9018C34.4373 11.4758 34.3226 11.0577 34.1053 10.6913C33.888 10.3249 33.5762 10.0237 33.2025 9.8192ZM19 4.75006L30.9255 11.2813L26.5065 13.7008L14.5795 7.16959L19 4.75006ZM19 17.8126L7.07453 11.2813L12.1066 8.52631L24.032 15.0576L19 17.8126ZM5.9375 13.3594L17.8125 19.858V32.5925L5.9375 26.0983V13.3594ZM32.0625 26.0924L20.1875 32.5925V19.864L24.9375 17.2648V22.5626C24.9375 22.8775 25.0626 23.1795 25.2853 23.4022C25.508 23.6249 25.8101 23.7501 26.125 23.7501C26.4399 23.7501 26.742 23.6249 26.9647 23.4022C27.1874 23.1795 27.3125 22.8775 27.3125 22.5626V15.9645L32.0625 13.3594V26.0909V26.0924Z" fill="url(#paint0_linear_783_1281)"/>
<defs>
<linearGradient id="paint0_linear_783_1281" x1="19" y1="2.37793" x2="19" y2="35.6192" gradientUnits="userSpaceOnUse">
<stop stop-color="#06112D"/>
<stop offset="1" stop-color="#073726"/>
</linearGradient>
</defs>
</svg>
