<svg width="38" height="38" viewBox="0 0 38 38" fill="none" xmlns="http://www.w3.org/2000/svg">
<path d="M23.75 5.9375C24.0649 5.9375 24.367 5.81239 24.5897 5.58969C24.8124 5.36699 24.9375 5.06494 24.9375 4.75C24.9375 4.43506 24.8124 4.13301 24.5897 3.91031C24.367 3.68761 24.0649 3.5625 23.75 3.5625H18.9288C16.0202 3.5625 13.7417 3.5625 11.932 3.75883C10.0874 3.95833 8.59117 4.37317 7.315 5.301C6.54216 5.86251 5.86251 6.54216 5.301 7.315C4.37317 8.59275 3.95833 10.0858 3.75883 11.932C3.5625 13.7417 3.5625 16.0202 3.5625 18.9288V19.0713C3.5625 21.9798 3.5625 24.2582 3.75883 26.0664C3.95833 27.9126 4.37317 29.4072 5.301 30.685C5.86251 31.4578 6.54216 32.1375 7.315 32.699C8.59275 33.6268 10.0858 34.0417 11.932 34.2412C13.7417 34.4375 16.0202 34.4375 18.9288 34.4375H19.0713C21.9798 34.4375 24.2583 34.4375 26.068 34.2412C27.9126 34.0417 29.4088 33.6268 30.685 32.699C31.4579 32.1375 32.1375 31.4579 32.699 30.685C33.6268 29.4072 34.0417 27.9142 34.2412 26.068C34.4375 24.2583 34.4375 21.9798 34.4375 19.0713V14.25C34.4375 13.9351 34.3124 13.633 34.0897 13.4103C33.867 13.1876 33.5649 13.0625 33.25 13.0625C32.9351 13.0625 32.633 13.1876 32.4103 13.4103C32.1876 13.633 32.0625 13.9351 32.0625 14.25V19C32.0625 21.9957 32.0609 24.1458 31.8804 25.8115C31.7015 27.455 31.3611 28.4842 30.7768 29.2885C30.362 29.8585 29.8585 30.362 29.2885 30.7768C28.4842 31.3627 27.455 31.7031 25.8115 31.8804C24.1458 32.0609 21.9957 32.0625 19 32.0625C16.0043 32.0625 13.8542 32.0609 12.1885 31.8804C10.545 31.7015 9.51583 31.3611 8.7115 30.7768C8.14039 30.3619 7.63814 29.8596 7.22317 29.2885C6.63733 28.4842 6.29692 27.455 6.11958 25.8115C5.93908 24.1458 5.9375 21.9957 5.9375 19C5.9375 16.0043 5.93908 13.8542 6.11958 12.1885C6.29692 10.545 6.63892 9.51583 7.22317 8.7115C7.638 8.1415 8.1415 7.638 8.7115 7.22317C9.51583 6.63733 10.545 6.29692 12.1885 6.11958C13.8542 5.93908 16.0043 5.9375 19 5.9375H23.75Z" fill="url(#paint0_linear_783_1263)"/>
<path d="M10.0177 23.001C9.89184 23.2819 9.87994 23.6008 9.98457 23.8903C10.0892 24.1798 10.3022 24.4174 10.5786 24.5529C10.855 24.6885 11.1732 24.7113 11.4662 24.6168C11.7591 24.5222 12.0039 24.3176 12.1489 24.046L14.4606 19.3324C15.1778 17.8726 17.2852 17.9439 17.9012 19.4496C19.2929 22.8522 24.0508 23.0121 25.6706 19.7124L27.9822 14.9989C28.1081 14.7179 28.12 14.3991 28.0154 14.1096C27.9108 13.8201 27.6978 13.5825 27.4214 13.447C27.145 13.3114 26.8268 13.2885 26.5338 13.3831C26.2409 13.4777 25.9961 13.6823 25.8511 13.9539L23.5394 18.6674C22.8222 20.1273 20.7147 20.056 20.0988 18.5503C18.7071 15.1477 13.9492 14.9878 12.3294 18.2874L10.0177 23.001Z" fill="url(#paint1_linear_783_1263)"/>
<path fill-rule="evenodd" clip-rule="evenodd" d="M27.7083 6.33333C27.7083 7.38315 28.1254 8.38997 28.8677 9.1323C29.61 9.87463 30.6168 10.2917 31.6666 10.2917C32.7165 10.2917 33.7233 9.87463 34.4656 9.1323C35.2079 8.38997 35.625 7.38315 35.625 6.33333C35.625 5.28352 35.2079 4.2767 34.4656 3.53437C33.7233 2.79204 32.7165 2.375 31.6666 2.375C30.6168 2.375 29.61 2.79204 28.8677 3.53437C28.1254 4.2767 27.7083 5.28352 27.7083 6.33333ZM30.0833 6.33333C30.0833 6.75326 30.2501 7.15599 30.5471 7.45292C30.844 7.74985 31.2467 7.91667 31.6666 7.91667C32.0866 7.91667 32.4893 7.74985 32.7862 7.45292C33.0832 7.15599 33.25 6.75326 33.25 6.33333C33.25 5.91341 33.0832 5.51068 32.7862 5.21375C32.4893 4.91681 32.0866 4.75 31.6666 4.75C31.2467 4.75 30.844 4.91681 30.5471 5.21375C30.2501 5.51068 30.0833 5.91341 30.0833 6.33333Z" fill="url(#paint2_linear_783_1263)"/>
<defs>
<linearGradient id="paint0_linear_783_1263" x1="19" y1="3.5625" x2="19" y2="34.4375" gradientUnits="userSpaceOnUse">
<stop stop-color="#06112D"/>
<stop offset="1" stop-color="#073726"/>
</linearGradient>
<linearGradient id="paint1_linear_783_1263" x1="19" y1="13.3257" x2="19" y2="24.6742" gradientUnits="userSpaceOnUse">
<stop stop-color="#06112D"/>
<stop offset="1" stop-color="#073726"/>
</linearGradient>
<linearGradient id="paint2_linear_783_1263" x1="31.6666" y1="2.375" x2="31.6666" y2="10.2917" gradientUnits="userSpaceOnUse">
<stop stop-color="#06112D"/>
<stop offset="1" stop-color="#073726"/>
</linearGradient>
</defs>
</svg>
