<svg width="28" height="28" viewBox="0 0 28 28" fill="none" xmlns="http://www.w3.org/2000/svg">
<g clip-path="url(#clip0_783_1300)">
<path d="M11.6076 21.3418L8.30829 24.6412C6.94046 26.009 4.72537 26.009 3.35869 24.6414C1.99174 23.2745 1.99174 21.0592 3.35842 19.6925L9.95819 13.0927C11.3249 11.726 13.5402 11.726 14.9069 13.0927C15.3625 13.5483 16.1012 13.5483 16.5568 13.0927C17.0124 12.6371 17.0124 11.8984 16.5568 11.4428C14.2788 9.16489 10.5862 9.16489 8.30829 11.4428L1.70857 18.0426C-0.56936 20.3205 -0.56936 24.0131 1.70857 26.2911C3.98622 28.5702 7.67911 28.5702 9.95824 26.2911L13.2576 22.9917C13.7132 22.5362 13.7132 21.7974 13.2576 21.3418C12.802 20.8863 12.0632 20.8863 11.6076 21.3418Z" fill="url(#paint0_linear_783_1300)"/>
<path d="M26.291 9.95739C28.5689 7.67946 28.5689 3.98684 26.291 1.70891C24.0131 -0.568962 20.3207 -0.568962 18.0416 1.70864L14.0829 5.66736C13.6273 6.12296 13.6273 6.86167 14.0829 7.31727C14.5385 7.77286 15.2772 7.77286 15.7328 7.31727L19.6912 3.35881C21.0588 1.99208 23.2744 1.99208 24.6411 3.35881C26.0078 4.72549 26.0078 6.9408 24.6411 8.30748L17.3822 15.5664C16.0154 16.9331 13.8002 16.9331 12.4335 15.5664C11.9779 15.1108 11.2392 15.1108 10.7836 15.5664C10.328 16.022 10.328 16.7607 10.7836 17.2163C13.0615 19.4942 16.7542 19.4942 19.0321 17.2163L26.291 9.95739ZM21.8254 20.1754C21.3698 19.7198 20.6311 19.7198 20.1755 20.1754C19.7199 20.631 19.7199 21.3697 20.1755 21.8253L23.6743 25.3241C24.1299 25.7797 24.8686 25.7797 25.3242 25.3241C25.7798 24.8685 25.7798 24.1298 25.3242 23.6742L21.8254 20.1754ZM6.17662 7.8264C6.63222 8.282 7.37092 8.282 7.82652 7.8264C8.28212 7.37081 8.28212 6.6321 7.82652 6.1765L4.32421 2.67419C3.86862 2.21859 3.12991 2.21859 2.67431 2.67419C2.21871 3.12978 2.21871 3.86849 2.67431 4.32409L6.17662 7.8264ZM26.8332 17.4998H23.3332C22.6889 17.4998 22.1666 18.0221 22.1666 18.6664C22.1666 19.3108 22.6889 19.8331 23.3332 19.8331H26.8332C27.4775 19.8331 27.9998 19.3108 27.9998 18.6664C27.9998 18.0221 27.4775 17.4998 26.8332 17.4998ZM9.33336 5.83328C9.97768 5.83328 10.5 5.31097 10.5 4.66665V1.16669C10.5 0.522314 9.97768 0 9.33336 0C8.68904 0 8.16673 0.522314 8.16673 1.16663V4.66659C8.16667 5.31091 8.68904 5.83328 9.33336 5.83328ZM1.16676 10.4999H4.66672C5.31104 10.4999 5.83335 9.97756 5.83335 9.33324C5.83335 8.68892 5.31104 8.16661 4.66672 8.16661H1.16676C0.522436 8.16661 0.00012207 8.68892 0.00012207 9.33324C0.00012207 9.97756 0.522436 10.4999 1.16676 10.4999ZM18.6665 22.1664C18.0222 22.1664 17.4999 22.6887 17.4999 23.333V26.833C17.4999 27.4773 18.0222 27.9996 18.6665 27.9996C19.3109 27.9996 19.8332 27.4773 19.8332 26.833V23.333C19.8332 22.6888 19.3109 22.1664 18.6665 22.1664Z" fill="url(#paint1_linear_783_1300)"/>
</g>
<defs>
<linearGradient id="paint0_linear_783_1300" x1="8.44929" y1="9.73437" x2="8.44929" y2="28.0004" gradientUnits="userSpaceOnUse">
<stop stop-color="#06112D"/>
<stop offset="1" stop-color="#073726"/>
</linearGradient>
<linearGradient id="paint1_linear_783_1300" x1="14" y1="0" x2="14" y2="27.9996" gradientUnits="userSpaceOnUse">
<stop stop-color="#06112D"/>
<stop offset="1" stop-color="#073726"/>
</linearGradient>
<clipPath id="clip0_783_1300">
<rect width="28" height="28" fill="white"/>
</clipPath>
</defs>
</svg>
