<svg width="1313" height="386" viewBox="0 0 1313 386" fill="none" xmlns="http://www.w3.org/2000/svg">
<rect x="0.5" y="4.5" width="178" height="49" rx="24.5" fill="url(#paint0_linear_783_1143)"/>
<rect x="0.5" y="4.5" width="178" height="49" rx="24.5" stroke="url(#paint1_linear_783_1143)"/>
<path d="M20.672 35H17.088V23.8H20.672C24.176 23.8 26.304 26.04 26.304 29.4C26.304 32.744 24.176 35 20.672 35ZM18.48 25.08V33.72H20.672C23.392 33.72 24.88 32.008 24.88 29.4C24.88 26.776 23.392 25.08 20.672 25.08H18.48ZM31.6248 35.096C29.1768 35.096 27.5768 33.416 27.5768 30.92C27.5768 28.44 29.1448 26.744 31.4488 26.744C33.7528 26.744 35.2568 28.2 35.3208 30.616C35.3208 30.792 35.3048 30.984 35.2888 31.176H28.9528V31.288C29.0008 32.84 29.9768 33.928 31.5288 33.928C32.6808 33.928 33.5768 33.32 33.8488 32.264H35.1768C34.8568 33.896 33.5128 35.096 31.6248 35.096ZM29.0328 30.088H33.9128C33.7848 28.68 32.8248 27.896 31.4648 27.896C30.2648 27.896 29.1608 28.76 29.0328 30.088ZM36.8179 35V23.8H38.1299V35H36.8179ZM47.1433 33.8H47.5593V35H46.8393C45.7513 35 45.3833 34.536 45.3673 33.736C44.8553 34.472 44.0393 35.096 42.6313 35.096C40.8393 35.096 39.6233 34.2 39.6233 32.712C39.6233 31.08 40.7593 30.168 42.9033 30.168H45.3033V29.608C45.3033 28.552 44.5513 27.912 43.2713 27.912C42.1193 27.912 41.3513 28.456 41.1913 29.288H39.8793C40.0713 27.688 41.3673 26.744 43.3353 26.744C45.4153 26.744 46.6153 27.784 46.6153 29.688V33.256C46.6153 33.688 46.7753 33.8 47.1433 33.8ZM45.3033 31.672V31.272H42.7753C41.6073 31.272 40.9513 31.704 40.9513 32.632C40.9513 33.432 41.6393 33.976 42.7273 33.976C44.3593 33.976 45.3033 33.032 45.3033 31.672ZM50.639 35.048L47.455 26.84H48.847L51.359 33.352L53.791 26.84H55.183L51.423 36.376C50.911 37.688 50.607 38.2 49.455 38.2H47.887V37H49.055C49.807 37 49.935 36.808 50.239 36.04L50.639 35.048ZM59.5623 35.096C57.1143 35.096 55.5143 33.416 55.5143 30.92C55.5143 28.44 57.0823 26.744 59.3863 26.744C61.6903 26.744 63.1943 28.2 63.2583 30.616C63.2583 30.792 63.2423 30.984 63.2263 31.176H56.8903V31.288C56.9383 32.84 57.9143 33.928 59.4663 33.928C60.6183 33.928 61.5143 33.32 61.7863 32.264H63.1143C62.7943 33.896 61.4503 35.096 59.5623 35.096ZM56.9703 30.088H61.8503C61.7223 28.68 60.7623 27.896 59.4023 27.896C58.2023 27.896 57.0983 28.76 56.9703 30.088ZM71.1874 28.088V23.8H72.4994V35H71.3634L71.1874 33.688C70.6434 34.44 69.7634 35.096 68.3874 35.096C66.1314 35.096 64.4674 33.576 64.4674 30.92C64.4674 28.424 66.1314 26.744 68.3874 26.744C69.7634 26.744 70.6914 27.304 71.1874 28.088ZM68.5154 33.928C70.1154 33.928 71.2034 32.696 71.2034 30.952C71.2034 29.16 70.1154 27.912 68.5154 27.912C66.8994 27.912 65.8114 29.144 65.8114 30.92C65.8114 32.696 66.8994 33.928 68.5154 33.928ZM78.1381 32.312H79.4821C79.5301 33.272 80.3781 33.976 81.7381 33.976C82.8901 33.976 83.7061 33.48 83.7061 32.728C83.7061 31.704 82.8101 31.624 81.5941 31.48C79.7701 31.256 78.3141 30.888 78.3141 29.192C78.3141 27.704 79.6741 26.728 81.5141 26.744C83.3701 26.76 84.7141 27.624 84.8421 29.32H83.4981C83.4021 28.488 82.6341 27.864 81.5141 27.864C80.3781 27.864 79.6101 28.344 79.6101 29.096C79.6101 29.992 80.4741 30.104 81.6581 30.248C83.5141 30.472 85.0021 30.824 85.0021 32.632C85.0021 34.152 83.5461 35.096 81.7381 35.096C79.6261 35.096 78.1701 34.104 78.1381 32.312ZM90.2185 35.096C87.7705 35.096 86.1705 33.416 86.1705 30.92C86.1705 28.44 87.7385 26.744 90.0425 26.744C92.3465 26.744 93.8505 28.2 93.9145 30.616C93.9145 30.792 93.8985 30.984 93.8825 31.176H87.5465V31.288C87.5945 32.84 88.5705 33.928 90.1225 33.928C91.2745 33.928 92.1705 33.32 92.4425 32.264H93.7705C93.4505 33.896 92.1065 35.096 90.2185 35.096ZM87.6265 30.088H92.5065C92.3785 28.68 91.4185 27.896 90.0585 27.896C88.8585 27.896 87.7545 28.76 87.6265 30.088ZM95.9259 32.872V28.04H94.4539V26.84H95.9259V24.552H97.2379V26.84H99.3499V28.04H97.2379V32.856C97.2379 33.544 97.4779 33.8 98.1819 33.8H99.4779V35H98.0539C96.4859 35 95.9259 34.312 95.9259 32.872ZM101.379 32.872V28.04H99.907V26.84H101.379V24.552H102.691V26.84H104.803V28.04H102.691V32.856C102.691 33.544 102.931 33.8 103.635 33.8H104.931V35H103.507C101.939 35 101.379 34.312 101.379 32.872ZM106.068 35V23.8H107.38V35H106.068ZM112.937 35.096C110.489 35.096 108.889 33.416 108.889 30.92C108.889 28.44 110.457 26.744 112.761 26.744C115.065 26.744 116.569 28.2 116.633 30.616C116.633 30.792 116.617 30.984 116.601 31.176H110.265V31.288C110.313 32.84 111.289 33.928 112.841 33.928C113.993 33.928 114.889 33.32 115.161 32.264H116.489C116.169 33.896 114.825 35.096 112.937 35.096ZM110.345 30.088H115.225C115.097 28.68 114.137 27.896 112.777 27.896C111.577 27.896 110.473 28.76 110.345 30.088ZM127.234 26.744C128.93 26.744 130.322 27.72 130.322 30.296V35H129.01V30.376C129.01 28.776 128.306 27.944 127.074 27.944C125.714 27.944 124.882 28.968 124.882 30.632V35H123.57V30.376C123.57 28.776 122.85 27.944 121.602 27.944C120.258 27.944 119.442 29.064 119.442 30.696V35H118.13V26.84H119.266L119.442 27.96C119.874 27.368 120.562 26.744 121.826 26.744C122.962 26.744 123.938 27.256 124.402 28.296C124.898 27.416 125.778 26.744 127.234 26.744ZM135.672 35.096C133.224 35.096 131.624 33.416 131.624 30.92C131.624 28.44 133.192 26.744 135.496 26.744C137.8 26.744 139.304 28.2 139.368 30.616C139.368 30.792 139.352 30.984 139.336 31.176H133V31.288C133.048 32.84 134.024 33.928 135.576 33.928C136.728 33.928 137.624 33.32 137.896 32.264H139.224C138.904 33.896 137.56 35.096 135.672 35.096ZM133.08 30.088H137.96C137.832 28.68 136.872 27.896 135.512 27.896C134.312 27.896 133.208 28.76 133.08 30.088ZM144.865 26.744C146.705 26.744 148.161 27.752 148.161 30.456V35H146.849V30.536C146.849 28.84 146.065 27.944 144.641 27.944C143.105 27.944 142.177 29.08 142.177 30.92V35H140.865V26.84H142.001L142.177 27.944C142.657 27.32 143.489 26.744 144.865 26.744ZM150.442 32.872V28.04H148.97V26.84H150.442V24.552H151.754V26.84H153.866V28.04H151.754V32.856C151.754 33.544 151.994 33.8 152.698 33.8H153.994V35H152.57C151.002 35 150.442 34.312 150.442 32.872ZM154.794 32.312H156.138C156.186 33.272 157.034 33.976 158.394 33.976C159.546 33.976 160.362 33.48 160.362 32.728C160.362 31.704 159.466 31.624 158.25 31.48C156.426 31.256 154.97 30.888 154.97 29.192C154.97 27.704 156.33 26.728 158.17 26.744C160.026 26.76 161.37 27.624 161.498 29.32H160.154C160.058 28.488 159.29 27.864 158.17 27.864C157.034 27.864 156.266 28.344 156.266 29.096C156.266 29.992 157.13 30.104 158.314 30.248C160.17 30.472 161.658 30.824 161.658 32.632C161.658 34.152 160.202 35.096 158.394 35.096C156.282 35.096 154.826 34.104 154.794 32.312Z" fill="url(#paint2_linear_783_1143)"/>
<rect x="1124.5" y="4.5" width="188" height="49" rx="24.5" fill="url(#paint3_linear_783_1143)"/>
<rect x="1124.5" y="4.5" width="188" height="49" rx="24.5" stroke="url(#paint4_linear_783_1143)"/>
<path d="M1141.09 35V23.8H1145.38C1147.62 23.8 1149.1 25.144 1149.1 27.24C1149.1 28.808 1148.16 30.024 1146.72 30.424L1149.23 35H1147.66L1145.3 30.696H1142.48V35H1141.09ZM1145.28 25.08H1142.48V29.416H1145.26C1146.74 29.416 1147.68 28.552 1147.68 27.24C1147.68 25.928 1146.74 25.08 1145.28 25.08ZM1154.02 35.096C1151.57 35.096 1149.97 33.416 1149.97 30.92C1149.97 28.44 1151.54 26.744 1153.84 26.744C1156.14 26.744 1157.65 28.2 1157.71 30.616C1157.71 30.792 1157.7 30.984 1157.68 31.176H1151.34V31.288C1151.39 32.84 1152.37 33.928 1153.92 33.928C1155.07 33.928 1155.97 33.32 1156.24 32.264H1157.57C1157.25 33.896 1155.9 35.096 1154.02 35.096ZM1151.42 30.088H1156.3C1156.18 28.68 1155.22 27.896 1153.86 27.896C1152.66 27.896 1151.55 28.76 1151.42 30.088ZM1166.42 33.8H1166.84V35H1166.12C1165.03 35 1164.66 34.536 1164.65 33.736C1164.14 34.472 1163.32 35.096 1161.91 35.096C1160.12 35.096 1158.9 34.2 1158.9 32.712C1158.9 31.08 1160.04 30.168 1162.18 30.168H1164.58V29.608C1164.58 28.552 1163.83 27.912 1162.55 27.912C1161.4 27.912 1160.63 28.456 1160.47 29.288H1159.16C1159.35 27.688 1160.65 26.744 1162.62 26.744C1164.7 26.744 1165.9 27.784 1165.9 29.688V33.256C1165.9 33.688 1166.06 33.8 1166.42 33.8ZM1164.58 31.672V31.272H1162.06C1160.89 31.272 1160.23 31.704 1160.23 32.632C1160.23 33.432 1160.92 33.976 1162.01 33.976C1163.64 33.976 1164.58 33.032 1164.58 31.672ZM1167.85 35V23.8H1169.16V35H1167.85ZM1176.22 31H1170.89V29.896H1176.22V31ZM1178.33 32.872V28.04H1176.86V26.84H1178.33V24.552H1179.64V26.84H1181.76V28.04H1179.64V32.856C1179.64 33.544 1179.88 33.8 1180.59 33.8H1181.88V35H1180.46C1178.89 35 1178.33 34.312 1178.33 32.872ZM1183.69 25.464C1183.21 25.464 1182.85 25.112 1182.85 24.616C1182.85 24.12 1183.21 23.768 1183.69 23.768C1184.17 23.768 1184.54 24.12 1184.54 24.616C1184.54 25.112 1184.17 25.464 1183.69 25.464ZM1183.02 35V26.84H1184.33V35H1183.02ZM1195.23 26.744C1196.93 26.744 1198.32 27.72 1198.32 30.296V35H1197.01V30.376C1197.01 28.776 1196.31 27.944 1195.07 27.944C1193.71 27.944 1192.88 28.968 1192.88 30.632V35H1191.57V30.376C1191.57 28.776 1190.85 27.944 1189.6 27.944C1188.26 27.944 1187.44 29.064 1187.44 30.696V35H1186.13V26.84H1187.27L1187.44 27.96C1187.87 27.368 1188.56 26.744 1189.83 26.744C1190.96 26.744 1191.94 27.256 1192.4 28.296C1192.9 27.416 1193.78 26.744 1195.23 26.744ZM1203.67 35.096C1201.22 35.096 1199.62 33.416 1199.62 30.92C1199.62 28.44 1201.19 26.744 1203.5 26.744C1205.8 26.744 1207.3 28.2 1207.37 30.616C1207.37 30.792 1207.35 30.984 1207.34 31.176H1201V31.288C1201.05 32.84 1202.02 33.928 1203.58 33.928C1204.73 33.928 1205.62 33.32 1205.9 32.264H1207.22C1206.9 33.896 1205.56 35.096 1203.67 35.096ZM1201.08 30.088H1205.96C1205.83 28.68 1204.87 27.896 1203.51 27.896C1202.31 27.896 1201.21 28.76 1201.08 30.088ZM1212.72 32.312H1214.06C1214.11 33.272 1214.96 33.976 1216.32 33.976C1217.47 33.976 1218.28 33.48 1218.28 32.728C1218.28 31.704 1217.39 31.624 1216.17 31.48C1214.35 31.256 1212.89 30.888 1212.89 29.192C1212.89 27.704 1214.25 26.728 1216.09 26.744C1217.95 26.76 1219.29 27.624 1219.42 29.32H1218.08C1217.98 28.488 1217.21 27.864 1216.09 27.864C1214.96 27.864 1214.19 28.344 1214.19 29.096C1214.19 29.992 1215.05 30.104 1216.24 30.248C1218.09 30.472 1219.58 30.824 1219.58 32.632C1219.58 34.152 1218.12 35.096 1216.32 35.096C1214.2 35.096 1212.75 34.104 1212.72 32.312ZM1224.8 35.096C1222.35 35.096 1220.75 33.416 1220.75 30.92C1220.75 28.44 1222.32 26.744 1224.62 26.744C1226.92 26.744 1228.43 28.2 1228.49 30.616C1228.49 30.792 1228.48 30.984 1228.46 31.176H1222.12V31.288C1222.17 32.84 1223.15 33.928 1224.7 33.928C1225.85 33.928 1226.75 33.32 1227.02 32.264H1228.35C1228.03 33.896 1226.68 35.096 1224.8 35.096ZM1222.2 30.088H1227.08C1226.96 28.68 1226 27.896 1224.64 27.896C1223.44 27.896 1222.33 28.76 1222.2 30.088ZM1230.5 32.872V28.04H1229.03V26.84H1230.5V24.552H1231.82V26.84H1233.93V28.04H1231.82V32.856C1231.82 33.544 1232.06 33.8 1232.76 33.8H1234.06V35H1232.63C1231.06 35 1230.5 34.312 1230.5 32.872ZM1235.96 32.872V28.04H1234.49V26.84H1235.96V24.552H1237.27V26.84H1239.38V28.04H1237.27V32.856C1237.27 33.544 1237.51 33.8 1238.21 33.8H1239.51V35H1238.09C1236.52 35 1235.96 34.312 1235.96 32.872ZM1240.65 35V23.8H1241.96V35H1240.65ZM1247.52 35.096C1245.07 35.096 1243.47 33.416 1243.47 30.92C1243.47 28.44 1245.04 26.744 1247.34 26.744C1249.64 26.744 1251.15 28.2 1251.21 30.616C1251.21 30.792 1251.2 30.984 1251.18 31.176H1244.84V31.288C1244.89 32.84 1245.87 33.928 1247.42 33.928C1248.57 33.928 1249.47 33.32 1249.74 32.264H1251.07C1250.75 33.896 1249.4 35.096 1247.52 35.096ZM1244.92 30.088H1249.8C1249.68 28.68 1248.72 27.896 1247.36 27.896C1246.16 27.896 1245.05 28.76 1244.92 30.088ZM1261.81 26.744C1263.51 26.744 1264.9 27.72 1264.9 30.296V35H1263.59V30.376C1263.59 28.776 1262.88 27.944 1261.65 27.944C1260.29 27.944 1259.46 28.968 1259.46 30.632V35H1258.15V30.376C1258.15 28.776 1257.43 27.944 1256.18 27.944C1254.84 27.944 1254.02 29.064 1254.02 30.696V35H1252.71V26.84H1253.84L1254.02 27.96C1254.45 27.368 1255.14 26.744 1256.4 26.744C1257.54 26.744 1258.52 27.256 1258.98 28.296C1259.48 27.416 1260.36 26.744 1261.81 26.744ZM1270.25 35.096C1267.8 35.096 1266.2 33.416 1266.2 30.92C1266.2 28.44 1267.77 26.744 1270.07 26.744C1272.38 26.744 1273.88 28.2 1273.95 30.616C1273.95 30.792 1273.93 30.984 1273.91 31.176H1267.58V31.288C1267.63 32.84 1268.6 33.928 1270.15 33.928C1271.31 33.928 1272.2 33.32 1272.47 32.264H1273.8C1273.48 33.896 1272.14 35.096 1270.25 35.096ZM1267.66 30.088H1272.54C1272.41 28.68 1271.45 27.896 1270.09 27.896C1268.89 27.896 1267.79 28.76 1267.66 30.088ZM1279.44 26.744C1281.28 26.744 1282.74 27.752 1282.74 30.456V35H1281.43V30.536C1281.43 28.84 1280.64 27.944 1279.22 27.944C1277.68 27.944 1276.75 29.08 1276.75 30.92V35H1275.44V26.84H1276.58L1276.75 27.944C1277.23 27.32 1278.07 26.744 1279.44 26.744ZM1285.02 32.872V28.04H1283.55V26.84H1285.02V24.552H1286.33V26.84H1288.44V28.04H1286.33V32.856C1286.33 33.544 1286.57 33.8 1287.28 33.8H1288.57V35H1287.15C1285.58 35 1285.02 34.312 1285.02 32.872ZM1289.37 32.312H1290.72C1290.76 33.272 1291.61 33.976 1292.97 33.976C1294.12 33.976 1294.94 33.48 1294.94 32.728C1294.94 31.704 1294.04 31.624 1292.83 31.48C1291 31.256 1289.55 30.888 1289.55 29.192C1289.55 27.704 1290.91 26.728 1292.75 26.744C1294.6 26.76 1295.95 27.624 1296.08 29.32H1294.73C1294.64 28.488 1293.87 27.864 1292.75 27.864C1291.61 27.864 1290.84 28.344 1290.84 29.096C1290.84 29.992 1291.71 30.104 1292.89 30.248C1294.75 30.472 1296.24 30.824 1296.24 32.632C1296.24 34.152 1294.78 35.096 1292.97 35.096C1290.86 35.096 1289.4 34.104 1289.37 32.312Z" fill="url(#paint5_linear_783_1143)"/>
<path d="M1119.67 29C1119.67 31.9455 1122.05 34.3333 1125 34.3333C1127.95 34.3333 1130.33 31.9455 1130.33 29C1130.33 26.0544 1127.95 23.6666 1125 23.6666C1122.05 23.6666 1119.67 26.0544 1119.67 29ZM739 29L739 30L1125 30L1125 29L1125 28L739 28L739 29Z" fill="url(#paint6_linear_783_1143)"/>
<path d="M170.667 29C170.667 31.9455 173.054 34.3333 176 34.3333C178.946 34.3333 181.333 31.9455 181.333 29C181.333 26.0545 178.946 23.6667 176 23.6667C173.054 23.6667 170.667 26.0545 170.667 29ZM176 29L176 30L574 30L574 29L574 28L176 28L176 29Z" fill="url(#paint7_linear_783_1143)"/>
<rect x="56.5" y="90.5" width="130" height="49" rx="24.5" fill="url(#paint8_linear_783_1143)"/>
<rect x="56.5" y="90.5" width="130" height="49" rx="24.5" stroke="url(#paint9_linear_783_1143)"/>
<path d="M73.088 121V109.8H74.848L78.816 119.096L82.736 109.8H84.464V121H83.104V112.168L79.392 121H78.16L74.448 112.168V121H73.088ZM87.1149 111.464C86.6349 111.464 86.2669 111.112 86.2669 110.616C86.2669 110.12 86.6349 109.768 87.1149 109.768C87.5949 109.768 87.9629 110.12 87.9629 110.616C87.9629 111.112 87.5949 111.464 87.1149 111.464ZM86.4429 121V112.84H87.7549V121H86.4429ZM89.2163 118.312H90.5603C90.6083 119.272 91.4563 119.976 92.8163 119.976C93.9683 119.976 94.7843 119.48 94.7843 118.728C94.7843 117.704 93.8883 117.624 92.6723 117.48C90.8483 117.256 89.3923 116.888 89.3923 115.192C89.3923 113.704 90.7523 112.728 92.5923 112.744C94.4483 112.76 95.7923 113.624 95.9203 115.32H94.5763C94.4803 114.488 93.7123 113.864 92.5923 113.864C91.4563 113.864 90.6883 114.344 90.6883 115.096C90.6883 115.992 91.5523 116.104 92.7363 116.248C94.5923 116.472 96.0803 116.824 96.0803 118.632C96.0803 120.152 94.6243 121.096 92.8163 121.096C90.7043 121.096 89.2483 120.104 89.2163 118.312ZM97.0444 118.312H98.3884C98.4364 119.272 99.2844 119.976 100.644 119.976C101.796 119.976 102.612 119.48 102.612 118.728C102.612 117.704 101.716 117.624 100.5 117.48C98.6764 117.256 97.2204 116.888 97.2204 115.192C97.2204 113.704 98.5804 112.728 100.42 112.744C102.276 112.76 103.62 113.624 103.748 115.32H102.404C102.308 114.488 101.54 113.864 100.42 113.864C99.2844 113.864 98.5164 114.344 98.5164 115.096C98.5164 115.992 99.3804 116.104 100.564 116.248C102.42 116.472 103.908 116.824 103.908 118.632C103.908 120.152 102.452 121.096 100.644 121.096C98.5324 121.096 97.0764 120.104 97.0444 118.312ZM106.037 111.464C105.557 111.464 105.189 111.112 105.189 110.616C105.189 110.12 105.557 109.768 106.037 109.768C106.517 109.768 106.885 110.12 106.885 110.616C106.885 111.112 106.517 111.464 106.037 111.464ZM105.365 121V112.84H106.677V121H105.365ZM112.474 112.744C114.314 112.744 115.77 113.752 115.77 116.456V121H114.458V116.536C114.458 114.84 113.674 113.944 112.25 113.944C110.714 113.944 109.786 115.08 109.786 116.92V121H108.474V112.84H109.61L109.786 113.944C110.266 113.32 111.098 112.744 112.474 112.744ZM123.875 114.248L124.051 112.84H125.187V120.6C125.187 122.952 123.939 124.296 121.139 124.296C119.059 124.296 117.603 123.32 117.395 121.528H118.739C118.963 122.552 119.875 123.128 121.235 123.128C122.947 123.128 123.875 122.328 123.875 120.552V119.592C123.331 120.52 122.451 121.096 121.075 121.096C118.819 121.096 117.155 119.576 117.155 116.92C117.155 114.424 118.819 112.744 121.075 112.744C122.451 112.744 123.363 113.336 123.875 114.248ZM121.203 119.928C122.803 119.928 123.891 118.696 123.891 116.952C123.891 115.16 122.803 113.912 121.203 113.912C119.587 113.912 118.499 115.144 118.499 116.92C118.499 118.696 119.587 119.928 121.203 119.928ZM131.354 121V109.8H135.658C137.898 109.8 139.37 111.144 139.37 113.24C139.37 115.336 137.898 116.696 135.658 116.696H132.746V121H131.354ZM135.546 111.08H132.746V115.416H135.53C137.002 115.416 137.946 114.568 137.946 113.24C137.946 111.912 137.018 111.08 135.546 111.08ZM151.126 115.4C151.126 118.696 148.934 121.096 145.782 121.096C142.63 121.096 140.438 118.696 140.438 115.4C140.438 112.104 142.63 109.704 145.782 109.704C148.934 109.704 151.126 112.104 151.126 115.4ZM141.862 115.4C141.862 117.976 143.446 119.816 145.782 119.816C148.118 119.816 149.702 117.976 149.702 115.4C149.702 112.824 148.118 110.984 145.782 110.984C143.446 110.984 141.862 112.824 141.862 115.4ZM156.469 121H152.885V109.8H156.469C159.973 109.8 162.101 112.04 162.101 115.4C162.101 118.744 159.973 121 156.469 121ZM154.277 111.08V119.72H156.469C159.189 119.72 160.677 118.008 160.677 115.4C160.677 112.776 159.189 111.08 156.469 111.08H154.277ZM163.326 118.312H164.67C164.718 119.272 165.566 119.976 166.926 119.976C168.078 119.976 168.894 119.48 168.894 118.728C168.894 117.704 167.998 117.624 166.782 117.48C164.958 117.256 163.502 116.888 163.502 115.192C163.502 113.704 164.862 112.728 166.702 112.744C168.558 112.76 169.902 113.624 170.03 115.32H168.686C168.59 114.488 167.822 113.864 166.702 113.864C165.566 113.864 164.798 114.344 164.798 115.096C164.798 115.992 165.662 116.104 166.846 116.248C168.702 116.472 170.19 116.824 170.19 118.632C170.19 120.152 168.734 121.096 166.926 121.096C164.814 121.096 163.358 120.104 163.326 118.312Z" fill="url(#paint10_linear_783_1143)"/>
<rect x="1068.5" y="90.5" width="183" height="49" rx="24.5" fill="url(#paint11_linear_783_1143)"/>
<rect x="1068.5" y="90.5" width="183" height="49" rx="24.5" stroke="url(#paint12_linear_783_1143)"/>
<path d="M1088.18 121L1084.14 109.8H1085.62L1089.04 119.352L1092.45 109.8H1093.89L1089.86 121H1088.18ZM1097.83 121.096C1095.38 121.096 1093.78 119.416 1093.78 116.92C1093.78 114.44 1095.35 112.744 1097.65 112.744C1099.96 112.744 1101.46 114.2 1101.52 116.616C1101.52 116.792 1101.51 116.984 1101.49 117.176H1095.16V117.288C1095.2 118.84 1096.18 119.928 1097.73 119.928C1098.88 119.928 1099.78 119.32 1100.05 118.264H1101.38C1101.06 119.896 1099.72 121.096 1097.83 121.096ZM1095.24 116.088H1100.12C1099.99 114.68 1099.03 113.896 1097.67 113.896C1096.47 113.896 1095.36 114.76 1095.24 116.088ZM1106.8 112.84H1107.17V114.12H1106.51C1104.8 114.12 1104.33 115.544 1104.33 116.84V121H1103.02V112.84H1104.16L1104.33 114.072C1104.72 113.448 1105.34 112.84 1106.8 112.84ZM1108.97 111.464C1108.49 111.464 1108.13 111.112 1108.13 110.616C1108.13 110.12 1108.49 109.768 1108.97 109.768C1109.45 109.768 1109.82 110.12 1109.82 110.616C1109.82 111.112 1109.45 111.464 1108.97 111.464ZM1108.3 121V112.84H1109.61V121H1108.3ZM1110.55 114.04V112.84H1112.02V111.928C1112.02 110.488 1112.63 109.8 1114.15 109.8H1115.64V111H1114.23C1113.57 111 1113.33 111.272 1113.33 111.896V112.84H1115.64V114.04H1113.33V121H1112.02V114.04H1110.55ZM1117.26 111.464C1116.78 111.464 1116.41 111.112 1116.41 110.616C1116.41 110.12 1116.78 109.768 1117.26 109.768C1117.74 109.768 1118.1 110.12 1118.1 110.616C1118.1 111.112 1117.74 111.464 1117.26 111.464ZM1116.58 121V112.84H1117.9V121H1116.58ZM1123.45 121.096C1121 121.096 1119.4 119.416 1119.4 116.92C1119.4 114.44 1120.97 112.744 1123.28 112.744C1125.58 112.744 1127.08 114.2 1127.15 116.616C1127.15 116.792 1127.13 116.984 1127.12 117.176H1120.78V117.288C1120.83 118.84 1121.8 119.928 1123.36 119.928C1124.51 119.928 1125.4 119.32 1125.68 118.264H1127C1126.68 119.896 1125.34 121.096 1123.45 121.096ZM1120.86 116.088H1125.74C1125.61 114.68 1124.65 113.896 1123.29 113.896C1122.09 113.896 1120.99 114.76 1120.86 116.088ZM1135.08 114.088V109.8H1136.39V121H1135.25L1135.08 119.688C1134.53 120.44 1133.65 121.096 1132.28 121.096C1130.02 121.096 1128.36 119.576 1128.36 116.92C1128.36 114.424 1130.02 112.744 1132.28 112.744C1133.65 112.744 1134.58 113.304 1135.08 114.088ZM1132.41 119.928C1134.01 119.928 1135.09 118.696 1135.09 116.952C1135.09 115.16 1134.01 113.912 1132.41 113.912C1130.79 113.912 1129.7 115.144 1129.7 116.92C1129.7 118.696 1130.79 119.928 1132.41 119.928ZM1141.5 114.04V112.84H1142.97V111.928C1142.97 110.488 1143.58 109.8 1145.1 109.8H1146.59V111H1145.18C1144.52 111 1144.28 111.272 1144.28 111.896V112.84H1146.59V114.04H1144.28V121H1142.97V114.04H1141.5ZM1148.21 111.464C1147.73 111.464 1147.36 111.112 1147.36 110.616C1147.36 110.12 1147.73 109.768 1148.21 109.768C1148.69 109.768 1149.06 110.12 1149.06 110.616C1149.06 111.112 1148.69 111.464 1148.21 111.464ZM1147.54 121V112.84H1148.85V121H1147.54ZM1154.65 112.744C1156.49 112.744 1157.94 113.752 1157.94 116.456V121H1156.63V116.536C1156.63 114.84 1155.85 113.944 1154.42 113.944C1152.89 113.944 1151.96 115.08 1151.96 116.92V121H1150.65V112.84H1151.78L1151.96 113.944C1152.44 113.32 1153.27 112.744 1154.65 112.744ZM1166.83 119.8H1167.25V121H1166.53C1165.44 121 1165.07 120.536 1165.05 119.736C1164.54 120.472 1163.73 121.096 1162.32 121.096C1160.53 121.096 1159.31 120.2 1159.31 118.712C1159.31 117.08 1160.45 116.168 1162.59 116.168H1164.99V115.608C1164.99 114.552 1164.24 113.912 1162.96 113.912C1161.81 113.912 1161.04 114.456 1160.88 115.288H1159.57C1159.76 113.688 1161.05 112.744 1163.02 112.744C1165.1 112.744 1166.3 113.784 1166.3 115.688V119.256C1166.3 119.688 1166.46 119.8 1166.83 119.8ZM1164.99 117.672V117.272H1162.46C1161.29 117.272 1160.64 117.704 1160.64 118.632C1160.64 119.432 1161.33 119.976 1162.41 119.976C1164.05 119.976 1164.99 119.032 1164.99 117.672ZM1172.26 112.744C1174.1 112.744 1175.55 113.752 1175.55 116.456V121H1174.24V116.536C1174.24 114.84 1173.46 113.944 1172.03 113.944C1170.5 113.944 1169.57 115.08 1169.57 116.92V121H1168.26V112.84H1169.39L1169.57 113.944C1170.05 113.32 1170.88 112.744 1172.26 112.744ZM1180.79 121.096C1178.41 121.096 1176.84 119.48 1176.84 116.936C1176.84 114.44 1178.46 112.744 1180.83 112.744C1182.83 112.744 1184.09 113.864 1184.43 115.656H1183.05C1182.81 114.568 1182.01 113.912 1180.81 113.912C1179.24 113.912 1178.19 115.16 1178.19 116.936C1178.19 118.712 1179.24 119.928 1180.81 119.928C1181.98 119.928 1182.78 119.256 1183.03 118.216H1184.43C1184.11 119.976 1182.78 121.096 1180.79 121.096ZM1186.54 111.464C1186.06 111.464 1185.69 111.112 1185.69 110.616C1185.69 110.12 1186.06 109.768 1186.54 109.768C1187.02 109.768 1187.38 110.12 1187.38 110.616C1187.38 111.112 1187.02 111.464 1186.54 111.464ZM1185.86 121V112.84H1187.18V121H1185.86ZM1196.19 119.8H1196.61V121H1195.89C1194.8 121 1194.43 120.536 1194.41 119.736C1193.9 120.472 1193.09 121.096 1191.68 121.096C1189.89 121.096 1188.67 120.2 1188.67 118.712C1188.67 117.08 1189.81 116.168 1191.95 116.168H1194.35V115.608C1194.35 114.552 1193.6 113.912 1192.32 113.912C1191.17 113.912 1190.4 114.456 1190.24 115.288H1188.93C1189.12 113.688 1190.41 112.744 1192.38 112.744C1194.46 112.744 1195.66 113.784 1195.66 115.688V119.256C1195.66 119.688 1195.82 119.8 1196.19 119.8ZM1194.35 117.672V117.272H1191.82C1190.65 117.272 1190 117.704 1190 118.632C1190 119.432 1190.69 119.976 1191.77 119.976C1193.41 119.976 1194.35 119.032 1194.35 117.672ZM1197.61 121V109.8H1198.93V121H1197.61ZM1211.34 114.088V109.8H1212.66V121H1211.52L1211.34 119.688C1210.8 120.44 1209.92 121.096 1208.54 121.096C1206.29 121.096 1204.62 119.576 1204.62 116.92C1204.62 114.424 1206.29 112.744 1208.54 112.744C1209.92 112.744 1210.85 113.304 1211.34 114.088ZM1208.67 119.928C1210.27 119.928 1211.36 118.696 1211.36 116.952C1211.36 115.16 1210.27 113.912 1208.67 113.912C1207.06 113.912 1205.97 115.144 1205.97 116.92C1205.97 118.696 1207.06 119.928 1208.67 119.928ZM1221.66 119.8H1222.07V121H1221.35C1220.27 121 1219.9 120.536 1219.88 119.736C1219.37 120.472 1218.55 121.096 1217.15 121.096C1215.35 121.096 1214.14 120.2 1214.14 118.712C1214.14 117.08 1215.27 116.168 1217.42 116.168H1219.82V115.608C1219.82 114.552 1219.07 113.912 1217.79 113.912C1216.63 113.912 1215.87 114.456 1215.71 115.288H1214.39C1214.59 113.688 1215.88 112.744 1217.85 112.744C1219.93 112.744 1221.13 113.784 1221.13 115.688V119.256C1221.13 119.688 1221.29 119.8 1221.66 119.8ZM1219.82 117.672V117.272H1217.29C1216.12 117.272 1215.47 117.704 1215.47 118.632C1215.47 119.432 1216.15 119.976 1217.24 119.976C1218.87 119.976 1219.82 119.032 1219.82 117.672ZM1223.69 118.872V114.04H1222.22V112.84H1223.69V110.552H1225V112.84H1227.12V114.04H1225V118.856C1225 119.544 1225.24 119.8 1225.95 119.8H1227.24V121H1225.82C1224.25 121 1223.69 120.312 1223.69 118.872ZM1235.47 119.8H1235.89V121H1235.17C1234.08 121 1233.71 120.536 1233.7 119.736C1233.18 120.472 1232.37 121.096 1230.96 121.096C1229.17 121.096 1227.95 120.2 1227.95 118.712C1227.95 117.08 1229.09 116.168 1231.23 116.168H1233.63V115.608C1233.63 114.552 1232.88 113.912 1231.6 113.912C1230.45 113.912 1229.68 114.456 1229.52 115.288H1228.21C1228.4 113.688 1229.7 112.744 1231.66 112.744C1233.74 112.744 1234.94 113.784 1234.94 115.688V119.256C1234.94 119.688 1235.1 119.8 1235.47 119.8ZM1233.63 117.672V117.272H1231.1C1229.94 117.272 1229.28 117.704 1229.28 118.632C1229.28 119.432 1229.97 119.976 1231.06 119.976C1232.69 119.976 1233.63 119.032 1233.63 117.672Z" fill="url(#paint13_linear_783_1143)"/>
<path d="M1063.67 115C1063.67 117.946 1066.05 120.333 1069 120.333C1071.95 120.333 1074.33 117.946 1074.33 115C1074.33 112.055 1071.95 109.667 1069 109.667C1066.05 109.667 1063.67 112.055 1063.67 115ZM822 115L822 116L1069 116L1069 115L1069 114L822 114L822 115Z" fill="url(#paint14_linear_783_1143)"/>
<path d="M179.667 115C179.667 117.946 182.054 120.333 185 120.333C187.946 120.333 190.333 117.946 190.333 115C190.333 112.054 187.946 109.667 185 109.667C182.054 109.667 179.667 112.054 179.667 115ZM185 115L185 116L492 116L492 115L492 114L185 114L185 115Z" fill="url(#paint15_linear_783_1143)"/>
<rect x="0.5" y="172.5" width="157" height="49" rx="24.5" fill="url(#paint16_linear_783_1143)"/>
<rect x="0.5" y="172.5" width="157" height="49" rx="24.5" stroke="url(#paint17_linear_783_1143)"/>
<path d="M20.672 203H17.088V191.8H20.672C24.176 191.8 26.304 194.04 26.304 197.4C26.304 200.744 24.176 203 20.672 203ZM18.48 193.08V201.72H20.672C23.392 201.72 24.88 200.008 24.88 197.4C24.88 194.776 23.392 193.08 20.672 193.08H18.48ZM28.5368 193.464C28.0568 193.464 27.6888 193.112 27.6888 192.616C27.6888 192.12 28.0568 191.768 28.5368 191.768C29.0168 191.768 29.3848 192.12 29.3848 192.616C29.3848 193.112 29.0168 193.464 28.5368 193.464ZM27.8648 203V194.84H29.1768V203H27.8648ZM30.6381 200.312H31.9821C32.0301 201.272 32.8781 201.976 34.2381 201.976C35.3901 201.976 36.2061 201.48 36.2061 200.728C36.2061 199.704 35.3101 199.624 34.0941 199.48C32.2701 199.256 30.8141 198.888 30.8141 197.192C30.8141 195.704 32.1741 194.728 34.0141 194.744C35.8701 194.76 37.2141 195.624 37.3421 197.32H35.9981C35.9021 196.488 35.1341 195.864 34.0141 195.864C32.8781 195.864 32.1101 196.344 32.1101 197.096C32.1101 197.992 32.9741 198.104 34.1581 198.248C36.0141 198.472 37.5021 198.824 37.5021 200.632C37.5021 202.152 36.0461 203.096 34.2381 203.096C32.1261 203.096 30.6701 202.104 30.6381 200.312ZM43.0705 194.744C45.3265 194.744 46.9905 196.264 46.9905 198.92C46.9905 201.416 45.3265 203.096 43.0705 203.096C41.6945 203.096 40.7665 202.536 40.2705 201.752V206.2H38.9585V194.84H40.0945L40.2705 196.152C40.8145 195.4 41.6945 194.744 43.0705 194.744ZM42.9425 201.928C44.5585 201.928 45.6465 200.696 45.6465 198.92C45.6465 197.144 44.5585 195.912 42.9425 195.912C41.3425 195.912 40.2545 197.144 40.2545 198.888C40.2545 200.68 41.3425 201.928 42.9425 201.928ZM54.2018 198.92V194.84H55.5138V203H54.3778L54.2018 201.912C53.7218 202.52 52.9378 203.096 51.5938 203.096C49.8018 203.096 48.3778 202.088 48.3778 199.384V194.84H49.6898V199.304C49.6898 201 50.4578 201.896 51.8177 201.896C53.3058 201.896 54.2018 200.76 54.2018 198.92ZM57.9415 200.872V196.04H56.4695V194.84H57.9415V192.552H59.2535V194.84H61.3655V196.04H59.2535V200.856C59.2535 201.544 59.4935 201.8 60.1975 201.8H61.4935V203H60.0695C58.5015 203 57.9415 202.312 57.9415 200.872ZM66.1873 203.096C63.7393 203.096 62.1393 201.416 62.1393 198.92C62.1393 196.44 63.7073 194.744 66.0113 194.744C68.3153 194.744 69.8193 196.2 69.8833 198.616C69.8833 198.792 69.8673 198.984 69.8513 199.176H63.5153V199.288C63.5633 200.84 64.5393 201.928 66.0913 201.928C67.2433 201.928 68.1393 201.32 68.4113 200.264H69.7393C69.4193 201.896 68.0753 203.096 66.1873 203.096ZM63.5953 198.088H68.4753C68.3473 196.68 67.3873 195.896 66.0273 195.896C64.8273 195.896 63.7233 196.76 63.5953 198.088ZM77.8124 196.088V191.8H79.1244V203H77.9884L77.8124 201.688C77.2684 202.44 76.3884 203.096 75.0124 203.096C72.7564 203.096 71.0924 201.576 71.0924 198.92C71.0924 196.424 72.7564 194.744 75.0124 194.744C76.3884 194.744 77.3164 195.304 77.8124 196.088ZM75.1404 201.928C76.7404 201.928 77.8284 200.696 77.8284 198.952C77.8284 197.16 76.7404 195.912 75.1404 195.912C73.5244 195.912 72.4364 197.144 72.4364 198.92C72.4364 200.696 73.5244 201.928 75.1404 201.928ZM85.7711 193.464C85.2911 193.464 84.9231 193.112 84.9231 192.616C84.9231 192.12 85.2911 191.768 85.7711 191.768C86.2511 191.768 86.6191 192.12 86.6191 192.616C86.6191 193.112 86.2511 193.464 85.7711 193.464ZM85.0991 203V194.84H86.4111V203H85.0991ZM92.2085 194.744C94.0485 194.744 95.5045 195.752 95.5045 198.456V203H94.1925V198.536C94.1925 196.84 93.4085 195.944 91.9845 195.944C90.4485 195.944 89.5205 197.08 89.5205 198.92V203H88.2085V194.84H89.3445L89.5205 195.944C90.0005 195.32 90.8325 194.744 92.2085 194.744ZM99.1204 203L96.0644 194.84H97.4724L99.9364 201.512L102.384 194.84H103.76L100.704 203H99.1204ZM108.14 203.096C105.756 203.096 104.092 201.4 104.092 198.92C104.092 196.44 105.756 194.744 108.14 194.744C110.524 194.744 112.188 196.44 112.188 198.92C112.188 201.4 110.524 203.096 108.14 203.096ZM108.14 201.928C109.756 201.928 110.844 200.664 110.844 198.92C110.844 197.176 109.756 195.912 108.14 195.912C106.524 195.912 105.436 197.176 105.436 198.92C105.436 200.664 106.524 201.928 108.14 201.928ZM114.365 193.464C113.885 193.464 113.517 193.112 113.517 192.616C113.517 192.12 113.885 191.768 114.365 191.768C114.845 191.768 115.213 192.12 115.213 192.616C115.213 193.112 114.845 193.464 114.365 193.464ZM113.693 203V194.84H115.005V203H113.693ZM120.466 203.096C118.082 203.096 116.514 201.48 116.514 198.936C116.514 196.44 118.13 194.744 120.498 194.744C122.498 194.744 123.762 195.864 124.098 197.656H122.722C122.482 196.568 121.682 195.912 120.482 195.912C118.914 195.912 117.858 197.16 117.858 198.936C117.858 200.712 118.914 201.928 120.482 201.928C121.65 201.928 122.45 201.256 122.706 200.216H124.098C123.778 201.976 122.45 203.096 120.466 203.096ZM129.297 203.096C126.849 203.096 125.249 201.416 125.249 198.92C125.249 196.44 126.817 194.744 129.121 194.744C131.425 194.744 132.929 196.2 132.993 198.616C132.993 198.792 132.977 198.984 132.961 199.176H126.625V199.288C126.673 200.84 127.649 201.928 129.201 201.928C130.353 201.928 131.249 201.32 131.521 200.264H132.849C132.529 201.896 131.185 203.096 129.297 203.096ZM126.705 198.088H131.585C131.457 196.68 130.497 195.896 129.137 195.896C127.937 195.896 126.833 196.76 126.705 198.088ZM134.123 200.312H135.467C135.515 201.272 136.363 201.976 137.723 201.976C138.875 201.976 139.691 201.48 139.691 200.728C139.691 199.704 138.795 199.624 137.579 199.48C135.755 199.256 134.299 198.888 134.299 197.192C134.299 195.704 135.659 194.728 137.499 194.744C139.355 194.76 140.699 195.624 140.827 197.32H139.483C139.387 196.488 138.619 195.864 137.499 195.864C136.363 195.864 135.595 196.344 135.595 197.096C135.595 197.992 136.459 198.104 137.643 198.248C139.499 198.472 140.987 198.824 140.987 200.632C140.987 202.152 139.531 203.096 137.723 203.096C135.611 203.096 134.155 202.104 134.123 200.312Z" fill="url(#paint18_linear_783_1143)"/>
<rect x="1088.5" y="172.5" width="223" height="49" rx="24.5" fill="url(#paint19_linear_783_1143)"/>
<rect x="1088.5" y="172.5" width="223" height="49" rx="24.5" stroke="url(#paint20_linear_783_1143)"/>
<path d="M1105.62 203H1104.18L1108.45 191.8H1110.1L1114.35 203H1112.86L1111.68 199.976H1106.8L1105.62 203ZM1109.23 193.32L1107.22 198.712H1111.26L1109.23 193.32ZM1118.73 203.096C1116.35 203.096 1114.78 201.48 1114.78 198.936C1114.78 196.44 1116.4 194.744 1118.76 194.744C1120.76 194.744 1122.03 195.864 1122.36 197.656H1120.99C1120.75 196.568 1119.95 195.912 1118.75 195.912C1117.18 195.912 1116.12 197.16 1116.12 198.936C1116.12 200.712 1117.18 201.928 1118.75 201.928C1119.92 201.928 1120.72 201.256 1120.97 200.216H1122.36C1122.04 201.976 1120.72 203.096 1118.73 203.096ZM1127.47 203.096C1125.08 203.096 1123.51 201.48 1123.51 198.936C1123.51 196.44 1125.13 194.744 1127.5 194.744C1129.5 194.744 1130.76 195.864 1131.1 197.656H1129.72C1129.48 196.568 1128.68 195.912 1127.48 195.912C1125.91 195.912 1124.86 197.16 1124.86 198.936C1124.86 200.712 1125.91 201.928 1127.48 201.928C1128.65 201.928 1129.45 201.256 1129.71 200.216H1131.1C1130.78 201.976 1129.45 203.096 1127.47 203.096ZM1138.25 198.92V194.84H1139.56V203H1138.42L1138.25 201.912C1137.77 202.52 1136.98 203.096 1135.64 203.096C1133.85 203.096 1132.42 202.088 1132.42 199.384V194.84H1133.74V199.304C1133.74 201 1134.5 201.896 1135.86 201.896C1137.35 201.896 1138.25 200.76 1138.25 198.92ZM1145.13 194.84H1145.49V196.12H1144.84C1143.13 196.12 1142.66 197.544 1142.66 198.84V203H1141.35V194.84H1142.49L1142.66 196.072C1143.05 195.448 1143.67 194.84 1145.13 194.84ZM1153.57 201.8H1153.98V203H1153.26C1152.17 203 1151.81 202.536 1151.79 201.736C1151.28 202.472 1150.46 203.096 1149.05 203.096C1147.26 203.096 1146.05 202.2 1146.05 200.712C1146.05 199.08 1147.18 198.168 1149.33 198.168H1151.73V197.608C1151.73 196.552 1150.97 195.912 1149.69 195.912C1148.54 195.912 1147.77 196.456 1147.61 197.288H1146.3C1146.49 195.688 1147.79 194.744 1149.76 194.744C1151.84 194.744 1153.04 195.784 1153.04 197.688V201.256C1153.04 201.688 1153.2 201.8 1153.57 201.8ZM1151.73 199.672V199.272H1149.2C1148.03 199.272 1147.37 199.704 1147.37 200.632C1147.37 201.432 1148.06 201.976 1149.15 201.976C1150.78 201.976 1151.73 201.032 1151.73 199.672ZM1155.6 200.872V196.04H1154.13V194.84H1155.6V192.552H1156.91V194.84H1159.02V196.04H1156.91V200.856C1156.91 201.544 1157.15 201.8 1157.85 201.8H1159.15V203H1157.73C1156.16 203 1155.6 202.312 1155.6 200.872ZM1163.84 203.096C1161.4 203.096 1159.8 201.416 1159.8 198.92C1159.8 196.44 1161.36 194.744 1163.67 194.744C1165.97 194.744 1167.48 196.2 1167.54 198.616C1167.54 198.792 1167.52 198.984 1167.51 199.176H1161.17V199.288C1161.22 200.84 1162.2 201.928 1163.75 201.928C1164.9 201.928 1165.8 201.32 1166.07 200.264H1167.4C1167.08 201.896 1165.73 203.096 1163.84 203.096ZM1161.25 198.088H1166.13C1166 196.68 1165.04 195.896 1163.68 195.896C1162.48 195.896 1161.38 196.76 1161.25 198.088ZM1169.1 201.32C1169.88 201.32 1170.36 202.072 1170.36 202.952C1170.36 204.312 1169.51 205.128 1168.11 205.16V204.408C1169.13 204.392 1169.45 203.672 1169.45 203.128C1169.45 203.048 1169.45 202.984 1169.43 202.92C1169.31 203.048 1169.08 203.112 1168.89 203.112C1168.41 203.112 1168.04 202.824 1168.04 202.248C1168.04 201.72 1168.43 201.32 1169.1 201.32ZM1181.7 198.92V194.84H1183.01V203H1181.88L1181.7 201.912C1181.22 202.52 1180.44 203.096 1179.09 203.096C1177.3 203.096 1175.88 202.088 1175.88 199.384V194.84H1177.19V199.304C1177.19 201 1177.96 201.896 1179.32 201.896C1180.81 201.896 1181.7 200.76 1181.7 198.92ZM1188.8 194.744C1190.64 194.744 1192.1 195.752 1192.1 198.456V203H1190.79V198.536C1190.79 196.84 1190 195.944 1188.58 195.944C1187.04 195.944 1186.11 197.08 1186.11 198.92V203H1184.8V194.84H1185.94L1186.11 195.944C1186.59 195.32 1187.43 194.744 1188.8 194.744ZM1194.44 193.464C1193.96 193.464 1193.6 193.112 1193.6 192.616C1193.6 192.12 1193.96 191.768 1194.44 191.768C1194.92 191.768 1195.29 192.12 1195.29 192.616C1195.29 193.112 1194.92 193.464 1194.44 193.464ZM1193.77 203V194.84H1195.08V203H1193.77ZM1196.02 196.04V194.84H1197.49V193.928C1197.49 192.488 1198.1 191.8 1199.62 191.8H1201.1V193H1199.7C1199.04 193 1198.8 193.272 1198.8 193.896V194.84H1201.1V196.04H1198.8V203H1197.49V196.04H1196.02ZM1202.72 193.464C1202.24 193.464 1201.88 193.112 1201.88 192.616C1201.88 192.12 1202.24 191.768 1202.72 191.768C1203.2 191.768 1203.57 192.12 1203.57 192.616C1203.57 193.112 1203.2 193.464 1202.72 193.464ZM1202.05 203V194.84H1203.36V203H1202.05ZM1208.92 203.096C1206.47 203.096 1204.87 201.416 1204.87 198.92C1204.87 196.44 1206.44 194.744 1208.75 194.744C1211.05 194.744 1212.55 196.2 1212.62 198.616C1212.62 198.792 1212.6 198.984 1212.59 199.176H1206.25V199.288C1206.3 200.84 1207.27 201.928 1208.83 201.928C1209.98 201.928 1210.87 201.32 1211.15 200.264H1212.47C1212.15 201.896 1210.81 203.096 1208.92 203.096ZM1206.33 198.088H1211.21C1211.08 196.68 1210.12 195.896 1208.76 195.896C1207.56 195.896 1206.46 196.76 1206.33 198.088ZM1220.55 196.088V191.8H1221.86V203H1220.72L1220.55 201.688C1220 202.44 1219.12 203.096 1217.75 203.096C1215.49 203.096 1213.83 201.576 1213.83 198.92C1213.83 196.424 1215.49 194.744 1217.75 194.744C1219.12 194.744 1220.05 195.304 1220.55 196.088ZM1217.87 201.928C1219.47 201.928 1220.56 200.696 1220.56 198.952C1220.56 197.16 1219.47 195.912 1217.87 195.912C1216.26 195.912 1215.17 197.144 1215.17 198.92C1215.17 200.696 1216.26 201.928 1217.87 201.928ZM1231.5 203.096C1229.11 203.096 1227.55 201.48 1227.55 198.936C1227.55 196.44 1229.16 194.744 1231.53 194.744C1233.53 194.744 1234.79 195.864 1235.13 197.656H1233.75C1233.51 196.568 1232.71 195.912 1231.51 195.912C1229.95 195.912 1228.89 197.16 1228.89 198.936C1228.89 200.712 1229.95 201.928 1231.51 201.928C1232.68 201.928 1233.48 201.256 1233.74 200.216H1235.13C1234.81 201.976 1233.48 203.096 1231.5 203.096ZM1243.78 201.8H1244.2V203H1243.48C1242.39 203 1242.02 202.536 1242.01 201.736C1241.5 202.472 1240.68 203.096 1239.27 203.096C1237.48 203.096 1236.26 202.2 1236.26 200.712C1236.26 199.08 1237.4 198.168 1239.54 198.168H1241.94V197.608C1241.94 196.552 1241.19 195.912 1239.91 195.912C1238.76 195.912 1237.99 196.456 1237.83 197.288H1236.52C1236.71 195.688 1238.01 194.744 1239.98 194.744C1242.06 194.744 1243.26 195.784 1243.26 197.688V201.256C1243.26 201.688 1243.42 201.8 1243.78 201.8ZM1241.94 199.672V199.272H1239.42C1238.25 199.272 1237.59 199.704 1237.59 200.632C1237.59 201.432 1238.28 201.976 1239.37 201.976C1241 201.976 1241.94 201.032 1241.94 199.672ZM1244.87 200.312H1246.22C1246.26 201.272 1247.11 201.976 1248.47 201.976C1249.62 201.976 1250.44 201.48 1250.44 200.728C1250.44 199.704 1249.54 199.624 1248.33 199.48C1246.5 199.256 1245.05 198.888 1245.05 197.192C1245.05 195.704 1246.41 194.728 1248.25 194.744C1250.1 194.76 1251.45 195.624 1251.58 197.32H1250.23C1250.14 196.488 1249.37 195.864 1248.25 195.864C1247.11 195.864 1246.34 196.344 1246.34 197.096C1246.34 197.992 1247.21 198.104 1248.39 198.248C1250.25 198.472 1251.74 198.824 1251.74 200.632C1251.74 202.152 1250.28 203.096 1248.47 203.096C1246.36 203.096 1244.9 202.104 1244.87 200.312ZM1257.19 194.744C1259.02 194.744 1260.5 195.752 1260.5 198.456V203H1259.19V198.536C1259.19 196.84 1258.38 195.944 1256.97 195.944C1255.45 195.944 1254.5 197.08 1254.5 198.92V203H1253.19V191.8H1254.5V196.184C1254.98 195.416 1255.82 194.744 1257.19 194.744ZM1265.5 196.04V194.84H1266.97V193.928C1266.97 192.488 1267.58 191.8 1269.1 191.8H1270.59V193H1269.18C1268.52 193 1268.28 193.272 1268.28 193.896V194.84H1270.59V196.04H1268.28V203H1266.97V196.04H1265.5ZM1271.54 203V191.8H1272.85V203H1271.54ZM1278.41 203.096C1276.02 203.096 1274.36 201.4 1274.36 198.92C1274.36 196.44 1276.02 194.744 1278.41 194.744C1280.79 194.744 1282.45 196.44 1282.45 198.92C1282.45 201.4 1280.79 203.096 1278.41 203.096ZM1278.41 201.928C1280.02 201.928 1281.11 200.664 1281.11 198.92C1281.11 197.176 1280.02 195.912 1278.41 195.912C1276.79 195.912 1275.7 197.176 1275.7 198.92C1275.7 200.664 1276.79 201.928 1278.41 201.928ZM1285.56 203L1282.92 194.84H1284.3L1286.33 201.48L1288.48 194.84H1289.69L1291.72 201.48L1293.85 194.84H1295.18L1292.46 203H1291.02L1289.05 196.936L1287 203H1285.56Z" fill="url(#paint21_linear_783_1143)"/>
<path d="M1083.67 197C1083.67 199.946 1086.05 202.333 1089 202.333C1091.95 202.333 1094.33 199.946 1094.33 197C1094.33 194.055 1091.95 191.667 1089 191.667C1086.05 191.667 1083.67 194.055 1083.67 197ZM839 197L839 198L1089 198L1089 197L1089 196L839 196L839 197Z" fill="url(#paint22_linear_783_1143)"/>
<path d="M151.667 197C151.667 199.946 154.054 202.333 157 202.333C159.946 202.333 162.333 199.946 162.333 197C162.333 194.054 159.946 191.667 157 191.667C154.054 191.667 151.667 194.054 151.667 197ZM157 197L157 198L475 198L475 197L475 196L157 196L157 197Z" fill="url(#paint23_linear_783_1143)"/>
<rect x="56.5" y="254.5" width="147" height="49" rx="24.5" fill="url(#paint24_linear_783_1143)"/>
<rect x="56.5" y="254.5" width="147" height="49" rx="24.5" stroke="url(#paint25_linear_783_1143)"/>
<path d="M73.024 280.216V273.8H74.416V280.296C74.416 282.616 75.344 283.816 77.28 283.816C79.248 283.816 80.176 282.616 80.176 280.296V273.8H81.568V280.216C81.568 283.416 80.08 285.096 77.28 285.096C74.48 285.096 73.024 283.416 73.024 280.216ZM87.4898 276.744C89.3298 276.744 90.7858 277.752 90.7858 280.456V285H89.4738V280.536C89.4738 278.84 88.6898 277.944 87.2658 277.944C85.7298 277.944 84.8018 279.08 84.8018 280.92V285H83.4898V276.84H84.6258L84.8018 277.944C85.2818 277.32 86.1138 276.744 87.4898 276.744ZM96.0288 285.096C93.6448 285.096 92.0768 283.48 92.0768 280.936C92.0768 278.44 93.6928 276.744 96.0608 276.744C98.0608 276.744 99.3248 277.864 99.6608 279.656H98.2848C98.0448 278.568 97.2448 277.912 96.0448 277.912C94.4768 277.912 93.4208 279.16 93.4208 280.936C93.4208 282.712 94.4768 283.928 96.0448 283.928C97.2128 283.928 98.0128 283.256 98.2688 282.216H99.6608C99.3408 283.976 98.0128 285.096 96.0288 285.096ZM101.099 285V273.8H102.411V285H101.099ZM107.969 285.096C105.521 285.096 103.921 283.416 103.921 280.92C103.921 278.44 105.489 276.744 107.793 276.744C110.097 276.744 111.601 278.2 111.665 280.616C111.665 280.792 111.649 280.984 111.633 281.176H105.297V281.288C105.345 282.84 106.321 283.928 107.873 283.928C109.025 283.928 109.921 283.32 110.193 282.264H111.521C111.201 283.896 109.857 285.096 107.969 285.096ZM105.377 280.088H110.257C110.129 278.68 109.169 277.896 107.809 277.896C106.609 277.896 105.505 278.76 105.377 280.088ZM120.378 283.8H120.794V285H120.074C118.986 285 118.618 284.536 118.602 283.736C118.09 284.472 117.274 285.096 115.866 285.096C114.074 285.096 112.858 284.2 112.858 282.712C112.858 281.08 113.994 280.168 116.138 280.168H118.538V279.608C118.538 278.552 117.786 277.912 116.506 277.912C115.354 277.912 114.586 278.456 114.426 279.288H113.114C113.306 277.688 114.602 276.744 116.57 276.744C118.65 276.744 119.85 277.784 119.85 279.688V283.256C119.85 283.688 120.01 283.8 120.378 283.8ZM118.538 281.672V281.272H116.01C114.842 281.272 114.186 281.704 114.186 282.632C114.186 283.432 114.874 283.976 115.962 283.976C117.594 283.976 118.538 283.032 118.538 281.672ZM125.578 276.84H125.946V278.12H125.29C123.578 278.12 123.114 279.544 123.114 280.84V285H121.802V276.84H122.938L123.114 278.072C123.498 277.448 124.122 276.84 125.578 276.84ZM140.375 276.744C142.071 276.744 143.463 277.72 143.463 280.296V285H142.151V280.376C142.151 278.776 141.447 277.944 140.215 277.944C138.855 277.944 138.023 278.968 138.023 280.632V285H136.711V280.376C136.711 278.776 135.991 277.944 134.743 277.944C133.399 277.944 132.583 279.064 132.583 280.696V285H131.271V276.84H132.407L132.583 277.96C133.015 277.368 133.703 276.744 134.967 276.744C136.103 276.744 137.079 277.256 137.543 278.296C138.039 277.416 138.919 276.744 140.375 276.744ZM152.362 283.8H152.778V285H152.058C150.97 285 150.602 284.536 150.586 283.736C150.074 284.472 149.258 285.096 147.85 285.096C146.058 285.096 144.842 284.2 144.842 282.712C144.842 281.08 145.978 280.168 148.122 280.168H150.522V279.608C150.522 278.552 149.77 277.912 148.49 277.912C147.338 277.912 146.57 278.456 146.41 279.288H145.098C145.29 277.688 146.586 276.744 148.554 276.744C150.634 276.744 151.834 277.784 151.834 279.688V283.256C151.834 283.688 151.994 283.8 152.362 283.8ZM150.522 281.672V281.272H147.994C146.826 281.272 146.17 281.704 146.17 282.632C146.17 283.432 146.858 283.976 147.946 283.976C149.578 283.976 150.522 283.032 150.522 281.672ZM157.563 276.84H157.931V278.12H157.275C155.563 278.12 155.099 279.544 155.099 280.84V285H153.787V276.84H154.923L155.099 278.072C155.483 277.448 156.107 276.84 157.563 276.84ZM165.031 278.248L165.207 276.84H166.343V284.6C166.343 286.952 165.095 288.296 162.295 288.296C160.215 288.296 158.759 287.32 158.551 285.528H159.895C160.119 286.552 161.031 287.128 162.391 287.128C164.103 287.128 165.031 286.328 165.031 284.552V283.592C164.487 284.52 163.607 285.096 162.231 285.096C159.975 285.096 158.311 283.576 158.311 280.92C158.311 278.424 159.975 276.744 162.231 276.744C163.607 276.744 164.519 277.336 165.031 278.248ZM162.359 283.928C163.959 283.928 165.047 282.696 165.047 280.952C165.047 279.16 163.959 277.912 162.359 277.912C160.743 277.912 159.655 279.144 159.655 280.92C159.655 282.696 160.743 283.928 162.359 283.928ZM168.802 275.464C168.322 275.464 167.954 275.112 167.954 274.616C167.954 274.12 168.322 273.768 168.802 273.768C169.282 273.768 169.65 274.12 169.65 274.616C169.65 275.112 169.282 275.464 168.802 275.464ZM168.13 285V276.84H169.442V285H168.13ZM175.24 276.744C177.08 276.744 178.536 277.752 178.536 280.456V285H177.224V280.536C177.224 278.84 176.44 277.944 175.016 277.944C173.48 277.944 172.552 279.08 172.552 280.92V285H171.24V276.84H172.376L172.552 277.944C173.032 277.32 173.864 276.744 175.24 276.744ZM179.873 282.312H181.217C181.265 283.272 182.113 283.976 183.473 283.976C184.625 283.976 185.441 283.48 185.441 282.728C185.441 281.704 184.545 281.624 183.329 281.48C181.505 281.256 180.049 280.888 180.049 279.192C180.049 277.704 181.409 276.728 183.249 276.744C185.105 276.76 186.449 277.624 186.577 279.32H185.233C185.137 278.488 184.369 277.864 183.249 277.864C182.113 277.864 181.345 278.344 181.345 279.096C181.345 279.992 182.209 280.104 183.393 280.248C185.249 280.472 186.737 280.824 186.737 282.632C186.737 284.152 185.281 285.096 183.473 285.096C181.361 285.096 179.905 284.104 179.873 282.312Z" fill="url(#paint26_linear_783_1143)"/>
<rect x="1082.5" y="254.5" width="173" height="49" rx="24.5" fill="url(#paint27_linear_783_1143)"/>
<rect x="1082.5" y="254.5" width="173" height="49" rx="24.5" stroke="url(#paint28_linear_783_1143)"/>
<path d="M1099.09 285V273.8H1103.39C1105.63 273.8 1107.1 275.144 1107.1 277.24C1107.1 279.336 1105.63 280.696 1103.39 280.696H1100.48V285H1099.09ZM1103.28 275.08H1100.48V279.416H1103.26C1104.74 279.416 1105.68 278.568 1105.68 277.24C1105.68 275.912 1104.75 275.08 1103.28 275.08ZM1112.17 276.84H1112.54V278.12H1111.88C1110.17 278.12 1109.71 279.544 1109.71 280.84V285H1108.4V276.84H1109.53L1109.71 278.072C1110.09 277.448 1110.72 276.84 1112.17 276.84ZM1116.97 285.096C1114.52 285.096 1112.92 283.416 1112.92 280.92C1112.92 278.44 1114.49 276.744 1116.79 276.744C1119.1 276.744 1120.6 278.2 1120.66 280.616C1120.66 280.792 1120.65 280.984 1120.63 281.176H1114.3V281.288C1114.34 282.84 1115.32 283.928 1116.87 283.928C1118.02 283.928 1118.92 283.32 1119.19 282.264H1120.52C1120.2 283.896 1118.86 285.096 1116.97 285.096ZM1114.38 280.088H1119.26C1119.13 278.68 1118.17 277.896 1116.81 277.896C1115.61 277.896 1114.5 278.76 1114.38 280.088ZM1128.59 278.088V273.8H1129.91V285H1128.77L1128.59 283.688C1128.05 284.44 1127.17 285.096 1125.79 285.096C1123.54 285.096 1121.87 283.576 1121.87 280.92C1121.87 278.424 1123.54 276.744 1125.79 276.744C1127.17 276.744 1128.1 277.304 1128.59 278.088ZM1125.92 283.928C1127.52 283.928 1128.61 282.696 1128.61 280.952C1128.61 279.16 1127.52 277.912 1125.92 277.912C1124.31 277.912 1123.22 279.144 1123.22 280.92C1123.22 282.696 1124.31 283.928 1125.92 283.928ZM1132.36 275.464C1131.88 275.464 1131.52 275.112 1131.52 274.616C1131.52 274.12 1131.88 273.768 1132.36 273.768C1132.84 273.768 1133.21 274.12 1133.21 274.616C1133.21 275.112 1132.84 275.464 1132.36 275.464ZM1131.69 285V276.84H1133V285H1131.69ZM1138.47 285.096C1136.08 285.096 1134.51 283.48 1134.51 280.936C1134.51 278.44 1136.13 276.744 1138.5 276.744C1140.5 276.744 1141.76 277.864 1142.1 279.656H1140.72C1140.48 278.568 1139.68 277.912 1138.48 277.912C1136.91 277.912 1135.86 279.16 1135.86 280.936C1135.86 282.712 1136.91 283.928 1138.48 283.928C1139.65 283.928 1140.45 283.256 1140.71 282.216H1142.1C1141.78 283.976 1140.45 285.096 1138.47 285.096ZM1144.14 282.872V278.04H1142.67V276.84H1144.14V274.552H1145.46V276.84H1147.57V278.04H1145.46V282.856C1145.46 283.544 1145.7 283.8 1146.4 283.8H1147.7V285H1146.27C1144.7 285 1144.14 284.312 1144.14 282.872ZM1155.92 283.8H1156.34V285H1155.62C1154.53 285 1154.16 284.536 1154.15 283.736C1153.64 284.472 1152.82 285.096 1151.41 285.096C1149.62 285.096 1148.4 284.2 1148.4 282.712C1148.4 281.08 1149.54 280.168 1151.68 280.168H1154.08V279.608C1154.08 278.552 1153.33 277.912 1152.05 277.912C1150.9 277.912 1150.13 278.456 1149.97 279.288H1148.66C1148.85 277.688 1150.15 276.744 1152.12 276.744C1154.2 276.744 1155.4 277.784 1155.4 279.688V283.256C1155.4 283.688 1155.56 283.8 1155.92 283.8ZM1154.08 281.672V281.272H1151.56C1150.39 281.272 1149.73 281.704 1149.73 282.632C1149.73 283.432 1150.42 283.976 1151.51 283.976C1153.14 283.976 1154.08 283.032 1154.08 281.672ZM1161.46 276.744C1163.72 276.744 1165.38 278.264 1165.38 280.92C1165.38 283.416 1163.72 285.096 1161.46 285.096C1160.09 285.096 1159.16 284.536 1158.66 283.752L1158.49 285H1157.35V273.8H1158.66V278.152C1159.21 277.4 1160.09 276.744 1161.46 276.744ZM1161.33 283.928C1162.95 283.928 1164.04 282.696 1164.04 280.92C1164.04 279.144 1162.95 277.912 1161.33 277.912C1159.73 277.912 1158.65 279.144 1158.65 280.888C1158.65 282.68 1159.73 283.928 1161.33 283.928ZM1166.88 285V273.8H1168.19V285H1166.88ZM1173.75 285.096C1171.3 285.096 1169.7 283.416 1169.7 280.92C1169.7 278.44 1171.27 276.744 1173.57 276.744C1175.88 276.744 1177.38 278.2 1177.45 280.616C1177.45 280.792 1177.43 280.984 1177.41 281.176H1171.08V281.288C1171.13 282.84 1172.1 283.928 1173.65 283.928C1174.81 283.928 1175.7 283.32 1175.97 282.264H1177.3C1176.98 283.896 1175.64 285.096 1173.75 285.096ZM1171.16 280.088H1176.04C1175.91 278.68 1174.95 277.896 1173.59 277.896C1172.39 277.896 1171.29 278.76 1171.16 280.088ZM1192.23 276.744C1193.93 276.744 1195.32 277.72 1195.32 280.296V285H1194.01V280.376C1194.01 278.776 1193.31 277.944 1192.07 277.944C1190.71 277.944 1189.88 278.968 1189.88 280.632V285H1188.57V280.376C1188.57 278.776 1187.85 277.944 1186.6 277.944C1185.26 277.944 1184.44 279.064 1184.44 280.696V285H1183.13V276.84H1184.27L1184.44 277.96C1184.87 277.368 1185.56 276.744 1186.83 276.744C1187.96 276.744 1188.94 277.256 1189.4 278.296C1189.9 277.416 1190.78 276.744 1192.23 276.744ZM1204.22 283.8H1204.64V285H1203.92C1202.83 285 1202.46 284.536 1202.45 283.736C1201.93 284.472 1201.12 285.096 1199.71 285.096C1197.92 285.096 1196.7 284.2 1196.7 282.712C1196.7 281.08 1197.84 280.168 1199.98 280.168H1202.38V279.608C1202.38 278.552 1201.63 277.912 1200.35 277.912C1199.2 277.912 1198.43 278.456 1198.27 279.288H1196.96C1197.15 277.688 1198.45 276.744 1200.41 276.744C1202.49 276.744 1203.69 277.784 1203.69 279.688V283.256C1203.69 283.688 1203.85 283.8 1204.22 283.8ZM1202.38 281.672V281.272H1199.85C1198.69 281.272 1198.03 281.704 1198.03 282.632C1198.03 283.432 1198.72 283.976 1199.81 283.976C1201.44 283.976 1202.38 283.032 1202.38 281.672ZM1209.42 276.84H1209.79V278.12H1209.13C1207.42 278.12 1206.96 279.544 1206.96 280.84V285H1205.65V276.84H1206.78L1206.96 278.072C1207.34 277.448 1207.97 276.84 1209.42 276.84ZM1216.89 278.248L1217.07 276.84H1218.2V284.6C1218.2 286.952 1216.95 288.296 1214.15 288.296C1212.07 288.296 1210.62 287.32 1210.41 285.528H1211.75C1211.98 286.552 1212.89 287.128 1214.25 287.128C1215.96 287.128 1216.89 286.328 1216.89 284.552V283.592C1216.35 284.52 1215.47 285.096 1214.09 285.096C1211.83 285.096 1210.17 283.576 1210.17 280.92C1210.17 278.424 1211.83 276.744 1214.09 276.744C1215.47 276.744 1216.38 277.336 1216.89 278.248ZM1214.22 283.928C1215.82 283.928 1216.91 282.696 1216.91 280.952C1216.91 279.16 1215.82 277.912 1214.22 277.912C1212.6 277.912 1211.51 279.144 1211.51 280.92C1211.51 282.696 1212.6 283.928 1214.22 283.928ZM1220.66 275.464C1220.18 275.464 1219.81 275.112 1219.81 274.616C1219.81 274.12 1220.18 273.768 1220.66 273.768C1221.14 273.768 1221.51 274.12 1221.51 274.616C1221.51 275.112 1221.14 275.464 1220.66 275.464ZM1219.99 285V276.84H1221.3V285H1219.99ZM1227.1 276.744C1228.94 276.744 1230.4 277.752 1230.4 280.456V285H1229.08V280.536C1229.08 278.84 1228.3 277.944 1226.88 277.944C1225.34 277.944 1224.41 279.08 1224.41 280.92V285H1223.1V276.84H1224.24L1224.41 277.944C1224.89 277.32 1225.72 276.744 1227.1 276.744ZM1231.73 282.312H1233.08C1233.12 283.272 1233.97 283.976 1235.33 283.976C1236.48 283.976 1237.3 283.48 1237.3 282.728C1237.3 281.704 1236.4 281.624 1235.19 281.48C1233.36 281.256 1231.91 280.888 1231.91 279.192C1231.91 277.704 1233.27 276.728 1235.11 276.744C1236.96 276.76 1238.31 277.624 1238.44 279.32H1237.09C1237 278.488 1236.23 277.864 1235.11 277.864C1233.97 277.864 1233.2 278.344 1233.2 279.096C1233.2 279.992 1234.07 280.104 1235.25 280.248C1237.11 280.472 1238.6 280.824 1238.6 282.632C1238.6 284.152 1237.14 285.096 1235.33 285.096C1233.22 285.096 1231.76 284.104 1231.73 282.312Z" fill="url(#paint29_linear_783_1143)"/>
<path d="M1077.67 279C1077.67 281.946 1080.05 284.333 1083 284.333C1085.95 284.333 1088.33 281.946 1088.33 279C1088.33 276.055 1085.95 273.667 1083 273.667C1080.05 273.667 1077.67 276.055 1077.67 279ZM815 279L815 280L1083 280L1083 279L1083 278L815 278L815 279Z" fill="url(#paint30_linear_783_1143)"/>
<path d="M197.667 279C197.667 281.946 200.054 284.333 203 284.333C205.946 284.333 208.333 281.946 208.333 279C208.333 276.054 205.946 273.667 203 273.667C200.054 273.667 197.667 276.054 197.667 279ZM203 279L203 280L498 280L498 279L498 278L203 278L203 279Z" fill="url(#paint31_linear_783_1143)"/>
<rect x="1137.5" y="336.5" width="174" height="49" rx="24.5" fill="url(#paint32_linear_783_1143)"/>
<rect x="1137.5" y="336.5" width="174" height="49" rx="24.5" stroke="url(#paint33_linear_783_1143)"/>
<path d="M1154.09 367V355.8H1161.05V357.08H1155.48V360.824H1160.09V362.104H1155.48V367H1154.09ZM1165.64 358.84H1166.01V360.12H1165.35C1163.64 360.12 1163.18 361.544 1163.18 362.84V367H1161.86V358.84H1163L1163.18 360.072C1163.56 359.448 1164.18 358.84 1165.64 358.84ZM1170.44 367.096C1167.99 367.096 1166.39 365.416 1166.39 362.92C1166.39 360.44 1167.96 358.744 1170.26 358.744C1172.57 358.744 1174.07 360.2 1174.13 362.616C1174.13 362.792 1174.12 362.984 1174.1 363.176H1167.77V363.288C1167.81 364.84 1168.79 365.928 1170.34 365.928C1171.49 365.928 1172.39 365.32 1172.66 364.264H1173.99C1173.67 365.896 1172.33 367.096 1170.44 367.096ZM1167.85 362.088H1172.73C1172.6 360.68 1171.64 359.896 1170.28 359.896C1169.08 359.896 1167.97 360.76 1167.85 362.088ZM1179.39 367.096C1176.94 367.096 1175.34 365.416 1175.34 362.92C1175.34 360.44 1176.91 358.744 1179.21 358.744C1181.52 358.744 1183.02 360.2 1183.09 362.616C1183.09 362.792 1183.07 362.984 1183.05 363.176H1176.72V363.288C1176.77 364.84 1177.74 365.928 1179.29 365.928C1180.45 365.928 1181.34 365.32 1181.61 364.264H1182.94C1182.62 365.896 1181.28 367.096 1179.39 367.096ZM1176.8 362.088H1181.68C1181.55 360.68 1180.59 359.896 1179.23 359.896C1178.03 359.896 1176.93 360.76 1176.8 362.088ZM1190.64 367L1188 358.84H1189.38L1191.41 365.48L1193.56 358.84H1194.77L1196.8 365.48L1198.93 358.84H1200.26L1197.54 367H1196.1L1194.13 360.936L1192.08 367H1190.64ZM1204.78 367.096C1202.4 367.096 1200.73 365.4 1200.73 362.92C1200.73 360.44 1202.4 358.744 1204.78 358.744C1207.17 358.744 1208.83 360.44 1208.83 362.92C1208.83 365.4 1207.17 367.096 1204.78 367.096ZM1204.78 365.928C1206.4 365.928 1207.49 364.664 1207.49 362.92C1207.49 361.176 1206.4 359.912 1204.78 359.912C1203.17 359.912 1202.08 361.176 1202.08 362.92C1202.08 364.664 1203.17 365.928 1204.78 365.928ZM1214.11 358.84H1214.48V360.12H1213.82C1212.11 360.12 1211.65 361.544 1211.65 362.84V367H1210.33V358.84H1211.47L1211.65 360.072C1212.03 359.448 1212.65 358.84 1214.11 358.84ZM1215.61 367V355.8H1216.93V363.176L1221.02 358.84H1222.64L1219.45 362.216L1222.86 367H1221.28L1218.57 363.16L1216.93 364.856V367H1215.61ZM1224.46 357.464C1223.98 357.464 1223.61 357.112 1223.61 356.616C1223.61 356.12 1223.98 355.768 1224.46 355.768C1224.94 355.768 1225.31 356.12 1225.31 356.616C1225.31 357.112 1224.94 357.464 1224.46 357.464ZM1223.79 367V358.84H1225.1V367H1223.79ZM1230.9 358.744C1232.74 358.744 1234.19 359.752 1234.19 362.456V367H1232.88V362.536C1232.88 360.84 1232.1 359.944 1230.67 359.944C1229.14 359.944 1228.21 361.08 1228.21 362.92V367H1226.9V358.84H1228.03L1228.21 359.944C1228.69 359.32 1229.52 358.744 1230.9 358.744ZM1242.3 360.248L1242.47 358.84H1243.61V366.6C1243.61 368.952 1242.36 370.296 1239.56 370.296C1237.48 370.296 1236.02 369.32 1235.82 367.528H1237.16C1237.38 368.552 1238.3 369.128 1239.66 369.128C1241.37 369.128 1242.3 368.328 1242.3 366.552V365.592C1241.75 366.52 1240.87 367.096 1239.5 367.096C1237.24 367.096 1235.58 365.576 1235.58 362.92C1235.58 360.424 1237.24 358.744 1239.5 358.744C1240.87 358.744 1241.78 359.336 1242.3 360.248ZM1239.62 365.928C1241.22 365.928 1242.31 364.696 1242.31 362.952C1242.31 361.16 1241.22 359.912 1239.62 359.912C1238.01 359.912 1236.92 361.144 1236.92 362.92C1236.92 364.696 1238.01 365.928 1239.62 365.928ZM1253.25 367.096C1250.86 367.096 1249.3 365.48 1249.3 362.936C1249.3 360.44 1250.91 358.744 1253.28 358.744C1255.28 358.744 1256.54 359.864 1256.88 361.656H1255.5C1255.26 360.568 1254.46 359.912 1253.26 359.912C1251.7 359.912 1250.64 361.16 1250.64 362.936C1250.64 364.712 1251.7 365.928 1253.26 365.928C1254.43 365.928 1255.23 365.256 1255.49 364.216H1256.88C1256.56 365.976 1255.23 367.096 1253.25 367.096ZM1265.53 365.8H1265.95V367H1265.23C1264.14 367 1263.77 366.536 1263.76 365.736C1263.25 366.472 1262.43 367.096 1261.02 367.096C1259.23 367.096 1258.01 366.2 1258.01 364.712C1258.01 363.08 1259.15 362.168 1261.29 362.168H1263.69V361.608C1263.69 360.552 1262.94 359.912 1261.66 359.912C1260.51 359.912 1259.74 360.456 1259.58 361.288H1258.27C1258.46 359.688 1259.76 358.744 1261.73 358.744C1263.81 358.744 1265.01 359.784 1265.01 361.688V365.256C1265.01 365.688 1265.17 365.8 1265.53 365.8ZM1263.69 363.672V363.272H1261.17C1260 363.272 1259.34 363.704 1259.34 364.632C1259.34 365.432 1260.03 365.976 1261.12 365.976C1262.75 365.976 1263.69 365.032 1263.69 363.672ZM1271.07 358.744C1273.33 358.744 1274.99 360.264 1274.99 362.92C1274.99 365.416 1273.33 367.096 1271.07 367.096C1269.69 367.096 1268.77 366.536 1268.27 365.752V370.2H1266.96V358.84H1268.09L1268.27 360.152C1268.81 359.4 1269.69 358.744 1271.07 358.744ZM1270.94 365.928C1272.56 365.928 1273.65 364.696 1273.65 362.92C1273.65 361.144 1272.56 359.912 1270.94 359.912C1269.34 359.912 1268.25 361.144 1268.25 362.888C1268.25 364.68 1269.34 365.928 1270.94 365.928ZM1277.16 357.464C1276.68 357.464 1276.31 357.112 1276.31 356.616C1276.31 356.12 1276.68 355.768 1277.16 355.768C1277.64 355.768 1278.01 356.12 1278.01 356.616C1278.01 357.112 1277.64 357.464 1277.16 357.464ZM1276.49 367V358.84H1277.8V367H1276.49ZM1280.21 364.872V360.04H1278.74V358.84H1280.21V356.552H1281.52V358.84H1283.63V360.04H1281.52V364.856C1281.52 365.544 1281.76 365.8 1282.46 365.8H1283.76V367H1282.34C1280.77 367 1280.21 366.312 1280.21 364.872ZM1291.99 365.8H1292.4V367H1291.68C1290.6 367 1290.23 366.536 1290.21 365.736C1289.7 366.472 1288.88 367.096 1287.48 367.096C1285.68 367.096 1284.47 366.2 1284.47 364.712C1284.47 363.08 1285.6 362.168 1287.75 362.168H1290.15V361.608C1290.15 360.552 1289.4 359.912 1288.12 359.912C1286.96 359.912 1286.2 360.456 1286.04 361.288H1284.72C1284.92 359.688 1286.21 358.744 1288.18 358.744C1290.26 358.744 1291.46 359.784 1291.46 361.688V365.256C1291.46 365.688 1291.62 365.8 1291.99 365.8ZM1290.15 363.672V363.272H1287.62C1286.45 363.272 1285.8 363.704 1285.8 364.632C1285.8 365.432 1286.48 365.976 1287.57 365.976C1289.2 365.976 1290.15 365.032 1290.15 363.672ZM1293.41 367V355.8H1294.72V367H1293.41Z" fill="url(#paint34_linear_783_1143)"/>
<rect x="0.5" y="336.5" width="203" height="49" rx="24.5" fill="url(#paint35_linear_783_1143)"/>
<rect x="0.5" y="336.5" width="203" height="49" rx="24.5" stroke="url(#paint36_linear_783_1143)"/>
<path d="M16.32 357.08V355.8H24.976V357.08H21.344V367H19.952V357.08H16.32ZM29.1564 358.84H29.5244V360.12H28.8684C27.1564 360.12 26.6924 361.544 26.6924 362.84V367H25.3804V358.84H26.5164L26.6924 360.072C27.0764 359.448 27.7004 358.84 29.1564 358.84ZM37.5964 365.8H38.0124V367H37.2924C36.2044 367 35.8364 366.536 35.8204 365.736C35.3084 366.472 34.4924 367.096 33.0844 367.096C31.2924 367.096 30.0764 366.2 30.0764 364.712C30.0764 363.08 31.2124 362.168 33.3564 362.168H35.7564V361.608C35.7564 360.552 35.0044 359.912 33.7244 359.912C32.5724 359.912 31.8044 360.456 31.6444 361.288H30.3324C30.5244 359.688 31.8204 358.744 33.7884 358.744C35.8684 358.744 37.0684 359.784 37.0684 361.688V365.256C37.0684 365.688 37.2284 365.8 37.5964 365.8ZM35.7564 363.672V363.272H33.2284C32.0604 363.272 31.4044 363.704 31.4044 364.632C31.4044 365.432 32.0924 365.976 33.1804 365.976C34.8124 365.976 35.7564 365.032 35.7564 363.672ZM43.133 358.744C45.389 358.744 47.053 360.264 47.053 362.92C47.053 365.416 45.389 367.096 43.133 367.096C41.757 367.096 40.829 366.536 40.333 365.752V370.2H39.021V358.84H40.157L40.333 360.152C40.877 359.4 41.757 358.744 43.133 358.744ZM43.005 365.928C44.621 365.928 45.709 364.696 45.709 362.92C45.709 361.144 44.621 359.912 43.005 359.912C41.405 359.912 40.317 361.144 40.317 362.888C40.317 364.68 41.405 365.928 43.005 365.928ZM52.6643 358.744C54.9203 358.744 56.5843 360.264 56.5843 362.92C56.5843 365.416 54.9203 367.096 52.6643 367.096C51.2883 367.096 50.3603 366.536 49.8643 365.752V370.2H48.5523V358.84H49.6883L49.8643 360.152C50.4083 359.4 51.2883 358.744 52.6643 358.744ZM52.5363 365.928C54.1523 365.928 55.2403 364.696 55.2403 362.92C55.2403 361.144 54.1523 359.912 52.5363 359.912C50.9363 359.912 49.8483 361.144 49.8483 362.888C49.8483 364.68 50.9363 365.928 52.5363 365.928ZM61.8435 367.096C59.3955 367.096 57.7955 365.416 57.7955 362.92C57.7955 360.44 59.3635 358.744 61.6675 358.744C63.9715 358.744 65.4755 360.2 65.5395 362.616C65.5395 362.792 65.5235 362.984 65.5075 363.176H59.1715V363.288C59.2195 364.84 60.1955 365.928 61.7475 365.928C62.8995 365.928 63.7955 365.32 64.0675 364.264H65.3955C65.0755 365.896 63.7315 367.096 61.8435 367.096ZM59.2515 362.088H64.1315C64.0035 360.68 63.0435 359.896 61.6835 359.896C60.4835 359.896 59.3795 360.76 59.2515 362.088ZM73.4686 360.088V355.8H74.7806V367H73.6446L73.4686 365.688C72.9246 366.44 72.0446 367.096 70.6686 367.096C68.4126 367.096 66.7486 365.576 66.7486 362.92C66.7486 360.424 68.4126 358.744 70.6686 358.744C72.0446 358.744 72.9726 359.304 73.4686 360.088ZM70.7966 365.928C72.3966 365.928 73.4846 364.696 73.4846 362.952C73.4846 361.16 72.3966 359.912 70.7966 359.912C69.1806 359.912 68.0926 361.144 68.0926 362.92C68.0926 364.696 69.1806 365.928 70.7966 365.928ZM82.6274 367L79.9874 358.84H81.3634L83.3954 365.48L85.5394 358.84H86.7554L88.7874 365.48L90.9154 358.84H92.2434L89.5234 367H88.0834L86.1154 360.936L84.0674 367H82.6274ZM96.7654 367.096C94.3814 367.096 92.7174 365.4 92.7174 362.92C92.7174 360.44 94.3814 358.744 96.7654 358.744C99.1494 358.744 100.813 360.44 100.813 362.92C100.813 365.4 99.1494 367.096 96.7654 367.096ZM96.7654 365.928C98.3814 365.928 99.4694 364.664 99.4694 362.92C99.4694 361.176 98.3814 359.912 96.7654 359.912C95.1494 359.912 94.0614 361.176 94.0614 362.92C94.0614 364.664 95.1494 365.928 96.7654 365.928ZM106.094 358.84H106.462V360.12H105.806C104.094 360.12 103.63 361.544 103.63 362.84V367H102.318V358.84H103.454L103.63 360.072C104.014 359.448 104.638 358.84 106.094 358.84ZM107.599 367V355.8H108.911V363.176L113.007 358.84H114.623L111.439 362.216L114.847 367H113.263L110.559 363.16L108.911 364.856V367H107.599ZM116.443 357.464C115.963 357.464 115.595 357.112 115.595 356.616C115.595 356.12 115.963 355.768 116.443 355.768C116.923 355.768 117.291 356.12 117.291 356.616C117.291 357.112 116.923 357.464 116.443 357.464ZM115.771 367V358.84H117.083V367H115.771ZM122.88 358.744C124.72 358.744 126.176 359.752 126.176 362.456V367H124.864V362.536C124.864 360.84 124.08 359.944 122.656 359.944C121.12 359.944 120.192 361.08 120.192 362.92V367H118.88V358.84H120.016L120.192 359.944C120.672 359.32 121.504 358.744 122.88 358.744ZM134.281 360.248L134.457 358.84H135.593V366.6C135.593 368.952 134.345 370.296 131.545 370.296C129.465 370.296 128.009 369.32 127.801 367.528H129.145C129.369 368.552 130.281 369.128 131.641 369.128C133.353 369.128 134.281 368.328 134.281 366.552V365.592C133.737 366.52 132.857 367.096 131.481 367.096C129.225 367.096 127.561 365.576 127.561 362.92C127.561 360.424 129.225 358.744 131.481 358.744C132.857 358.744 133.769 359.336 134.281 360.248ZM131.609 365.928C133.209 365.928 134.297 364.696 134.297 362.952C134.297 361.16 133.209 359.912 131.609 359.912C129.993 359.912 128.905 361.144 128.905 362.92C128.905 364.696 129.993 365.928 131.609 365.928ZM145.232 367.096C142.848 367.096 141.28 365.48 141.28 362.936C141.28 360.44 142.896 358.744 145.264 358.744C147.264 358.744 148.528 359.864 148.864 361.656H147.488C147.248 360.568 146.448 359.912 145.248 359.912C143.68 359.912 142.624 361.16 142.624 362.936C142.624 364.712 143.68 365.928 145.248 365.928C146.416 365.928 147.216 365.256 147.472 364.216H148.864C148.544 365.976 147.216 367.096 145.232 367.096ZM157.518 365.8H157.934V367H157.214C156.126 367 155.758 366.536 155.742 365.736C155.23 366.472 154.414 367.096 153.006 367.096C151.214 367.096 149.998 366.2 149.998 364.712C149.998 363.08 151.134 362.168 153.278 362.168H155.678V361.608C155.678 360.552 154.926 359.912 153.646 359.912C152.494 359.912 151.726 360.456 151.566 361.288H150.254C150.446 359.688 151.742 358.744 153.71 358.744C155.79 358.744 156.99 359.784 156.99 361.688V365.256C156.99 365.688 157.15 365.8 157.518 365.8ZM155.678 363.672V363.272H153.15C151.982 363.272 151.326 363.704 151.326 364.632C151.326 365.432 152.014 365.976 153.102 365.976C154.734 365.976 155.678 365.032 155.678 363.672ZM163.055 358.744C165.311 358.744 166.975 360.264 166.975 362.92C166.975 365.416 165.311 367.096 163.055 367.096C161.679 367.096 160.751 366.536 160.255 365.752V370.2H158.943V358.84H160.079L160.255 360.152C160.799 359.4 161.679 358.744 163.055 358.744ZM162.927 365.928C164.543 365.928 165.631 364.696 165.631 362.92C165.631 361.144 164.543 359.912 162.927 359.912C161.327 359.912 160.239 361.144 160.239 362.888C160.239 364.68 161.327 365.928 162.927 365.928ZM169.146 357.464C168.666 357.464 168.298 357.112 168.298 356.616C168.298 356.12 168.666 355.768 169.146 355.768C169.626 355.768 169.994 356.12 169.994 356.616C169.994 357.112 169.626 357.464 169.146 357.464ZM168.474 367V358.84H169.786V367H168.474ZM172.192 364.872V360.04H170.72V358.84H172.192V356.552H173.504V358.84H175.616V360.04H173.504V364.856C173.504 365.544 173.744 365.8 174.448 365.8H175.744V367H174.32C172.752 367 172.192 366.312 172.192 364.872ZM183.971 365.8H184.387V367H183.667C182.579 367 182.211 366.536 182.195 365.736C181.683 366.472 180.867 367.096 179.459 367.096C177.667 367.096 176.451 366.2 176.451 364.712C176.451 363.08 177.587 362.168 179.731 362.168H182.131V361.608C182.131 360.552 181.379 359.912 180.099 359.912C178.947 359.912 178.179 360.456 178.019 361.288H176.707C176.899 359.688 178.195 358.744 180.163 358.744C182.243 358.744 183.443 359.784 183.443 361.688V365.256C183.443 365.688 183.603 365.8 183.971 365.8ZM182.131 363.672V363.272H179.603C178.435 363.272 177.779 363.704 177.779 364.632C177.779 365.432 178.467 365.976 179.555 365.976C181.187 365.976 182.131 365.032 182.131 363.672ZM185.396 367V355.8H186.708V367H185.396Z" fill="url(#paint37_linear_783_1143)"/>
<path d="M1132.67 361C1132.67 363.946 1135.05 366.333 1138 366.333C1140.95 366.333 1143.33 363.946 1143.33 361C1143.33 358.055 1140.95 355.667 1138 355.667C1135.05 355.667 1132.67 358.055 1132.67 361ZM721 361L721 362L1138 362L1138 361L1138 360L721 360L721 361Z" fill="url(#paint38_linear_783_1143)"/>
<path d="M197.667 361C197.667 363.946 200.054 366.333 203 366.333C205.946 366.333 208.333 363.946 208.333 361C208.333 358.054 205.946 355.667 203 355.667C200.054 355.667 197.667 358.054 197.667 361ZM203 361L203 362L592 362L592 361L592 360L203 360L203 361Z" fill="url(#paint39_linear_783_1143)"/>
<rect x="473.995" y="8.99457" width="364.011" height="364.011" rx="182.005" fill="url(#paint40_linear_783_1143)" fill-opacity="0.41"/>
<rect x="473.995" y="8.99457" width="364.011" height="364.011" rx="182.005" stroke="url(#paint41_linear_783_1143)" stroke-width="1.98913"/>
<g clip-path="url(#clip0_783_1143)">
<rect x="490.902" y="25.9023" width="330.196" height="330.196" rx="165.098" fill="url(#paint42_linear_783_1143)" fill-opacity="0.4"/>
<path d="M806.771 -17.9354V49.9923C789.234 50.0528 756.662 53.0597 728.329 75.0363C703.123 94.5912 689.885 122.521 683.145 136.708C680.925 141.39 681.369 140.926 669.039 170.167C664.276 181.489 653.661 207.118 649.665 215.594C636.407 243.826 620.525 277.689 589.265 300.191C577.823 308.424 550.76 324.912 506 325.335V256.056C520.086 254.926 534.172 252.12 543.576 244.412C558.469 232.222 569.67 216.724 578.932 199.207H529.631V155.153H598.023C600.99 147.141 603.855 138.988 606.761 130.735C607.73 127.95 608.719 125.165 609.708 122.38C624.722 80.0007 652.874 42.808 688.997 17.7034C724.212 -6.77558 764.714 -19.005 806.771 -17.9354Z" fill="url(#paint43_linear_783_1143)"/>
<path d="M754.889 155.152H806.773V199.206H735.193C732.973 204.211 730.551 209.68 727.867 215.633C694.004 291.027 673.703 319.159 659.798 335.223C635.4 363.415 610.053 379.196 605.23 382.082C583.294 395.139 551.893 402 517.304 402C513.59 402 509.817 401.919 506.043 401.758V350.419C517.243 351.165 548.442 352.013 578.209 336.312C598.248 325.758 614.655 310.017 628.62 292.4C643.916 273.087 656.509 252.059 666.357 229.477C676.649 205.825 686.295 181.931 696.83 158.381C703.187 144.174 709.604 129.462 718.403 116.446C727.484 102.985 739.068 91.4419 753.255 83.4504C760.782 79.2125 768.814 75.8221 777.108 73.3803C784.232 71.2815 794.342 69.0213 806.793 68.6782V120.845C789.418 124.639 775.292 131.601 764.576 141.631C760.762 145.203 758.703 147.584 754.909 155.152H754.889Z" fill="url(#paint44_linear_783_1143)"/>
</g>
<defs>
<linearGradient id="paint0_linear_783_1143" x1="0" y1="29" x2="184.531" y2="29" gradientUnits="userSpaceOnUse">
<stop stop-color="#F07676" stop-opacity="0.16"/>
<stop offset="1" stop-color="#E0F2FE" stop-opacity="0.16"/>
</linearGradient>
<linearGradient id="paint1_linear_783_1143" x1="0" y1="29" x2="189.056" y2="29" gradientUnits="userSpaceOnUse">
<stop stop-color="#FDF0F0"/>
<stop offset="1" stop-color="#FBD4D4" stop-opacity="0.61"/>
</linearGradient>
<linearGradient id="paint2_linear_783_1143" x1="16" y1="29" x2="163" y2="29" gradientUnits="userSpaceOnUse">
<stop stop-color="#C70F0F"/>
<stop offset="1" stop-color="#87310C"/>
</linearGradient>
<linearGradient id="paint3_linear_783_1143" x1="1124" y1="29" x2="1318.84" y2="29" gradientUnits="userSpaceOnUse">
<stop stop-color="#A7F3D0" stop-opacity="0.16"/>
<stop offset="1" stop-color="#A7F3D0" stop-opacity="0.5"/>
</linearGradient>
<linearGradient id="paint4_linear_783_1143" x1="1124" y1="29" x2="1323.62" y2="29" gradientUnits="userSpaceOnUse">
<stop stop-color="#A7F0CE"/>
<stop offset="1" stop-color="#F7FEFA" stop-opacity="0.61"/>
</linearGradient>
<linearGradient id="paint5_linear_783_1143" x1="1140" y1="29" x2="1297" y2="29" gradientUnits="userSpaceOnUse">
<stop stop-color="#0C7344"/>
<stop offset="1" stop-color="#060D2D"/>
</linearGradient>
<linearGradient id="paint6_linear_783_1143" x1="739" y1="29.5" x2="1125" y2="29.5" gradientUnits="userSpaceOnUse">
<stop stop-color="#A5F2CE" stop-opacity="0.8"/>
<stop offset="1" stop-color="#A5F2CE" stop-opacity="0.8"/>
</linearGradient>
<linearGradient id="paint7_linear_783_1143" x1="176" y1="29.5" x2="596.36" y2="29.4999" gradientUnits="userSpaceOnUse">
<stop stop-color="#F7AFAF"/>
<stop offset="1" stop-color="#FBD4D4" stop-opacity="0.61"/>
</linearGradient>
<linearGradient id="paint8_linear_783_1143" x1="56" y1="115" x2="191.048" y2="115" gradientUnits="userSpaceOnUse">
<stop stop-color="#F07676" stop-opacity="0.16"/>
<stop offset="1" stop-color="#E0F2FE" stop-opacity="0.16"/>
</linearGradient>
<linearGradient id="paint9_linear_783_1143" x1="56" y1="115" x2="194.36" y2="115" gradientUnits="userSpaceOnUse">
<stop stop-color="#FDF0F0"/>
<stop offset="1" stop-color="#FBD4D4" stop-opacity="0.61"/>
</linearGradient>
<linearGradient id="paint10_linear_783_1143" x1="72" y1="115" x2="171" y2="115" gradientUnits="userSpaceOnUse">
<stop stop-color="#C70F0F"/>
<stop offset="1" stop-color="#87310C"/>
</linearGradient>
<linearGradient id="paint11_linear_783_1143" x1="1068" y1="115" x2="1257.69" y2="115" gradientUnits="userSpaceOnUse">
<stop stop-color="#A7F3D0" stop-opacity="0.16"/>
<stop offset="1" stop-color="#A7F3D0" stop-opacity="0.5"/>
</linearGradient>
<linearGradient id="paint12_linear_783_1143" x1="1068" y1="115" x2="1262.34" y2="115" gradientUnits="userSpaceOnUse">
<stop stop-color="#A7F0CE"/>
<stop offset="1" stop-color="#F7FEFA" stop-opacity="0.61"/>
</linearGradient>
<linearGradient id="paint13_linear_783_1143" x1="1084" y1="115" x2="1236" y2="115" gradientUnits="userSpaceOnUse">
<stop stop-color="#062D1B"/>
<stop offset="1" stop-color="#060D2D"/>
</linearGradient>
<linearGradient id="paint14_linear_783_1143" x1="822" y1="115.5" x2="1069" y2="115.5" gradientUnits="userSpaceOnUse">
<stop stop-color="#A5F2CE" stop-opacity="0.8"/>
<stop offset="1" stop-color="#A5F2CE" stop-opacity="0.8"/>
</linearGradient>
<linearGradient id="paint15_linear_783_1143" x1="185" y1="115.5" x2="509.247" y2="115.5" gradientUnits="userSpaceOnUse">
<stop stop-color="#F7AFAF"/>
<stop offset="1" stop-color="#FBD4D4" stop-opacity="0.61"/>
</linearGradient>
<linearGradient id="paint16_linear_783_1143" x1="0" y1="197" x2="162.882" y2="197" gradientUnits="userSpaceOnUse">
<stop stop-color="#F07676" stop-opacity="0.16"/>
<stop offset="1" stop-color="#E0F2FE" stop-opacity="0.16"/>
</linearGradient>
<linearGradient id="paint17_linear_783_1143" x1="0" y1="197" x2="166.876" y2="197" gradientUnits="userSpaceOnUse">
<stop stop-color="#FDF0F0"/>
<stop offset="1" stop-color="#FBD4D4" stop-opacity="0.61"/>
</linearGradient>
<linearGradient id="paint18_linear_783_1143" x1="16" y1="197" x2="142" y2="197" gradientUnits="userSpaceOnUse">
<stop stop-color="#C70F0F"/>
<stop offset="1" stop-color="#87310C"/>
</linearGradient>
<linearGradient id="paint19_linear_783_1143" x1="1088" y1="197" x2="1318.92" y2="197" gradientUnits="userSpaceOnUse">
<stop stop-color="#A7F3D0" stop-opacity="0.16"/>
<stop offset="1" stop-color="#A7F3D0" stop-opacity="0.5"/>
</linearGradient>
<linearGradient id="paint20_linear_783_1143" x1="1088" y1="197" x2="1324.58" y2="197" gradientUnits="userSpaceOnUse">
<stop stop-color="#A7F0CE"/>
<stop offset="1" stop-color="#F7FEFA" stop-opacity="0.61"/>
</linearGradient>
<linearGradient id="paint21_linear_783_1143" x1="1104" y1="197" x2="1296" y2="197" gradientUnits="userSpaceOnUse">
<stop stop-color="#0C7344"/>
<stop offset="1" stop-color="#060D2D"/>
</linearGradient>
<linearGradient id="paint22_linear_783_1143" x1="839" y1="197.5" x2="1089" y2="197.5" gradientUnits="userSpaceOnUse">
<stop stop-color="#A5F2CE" stop-opacity="0.8"/>
<stop offset="1" stop-color="#A5F2CE" stop-opacity="0.8"/>
</linearGradient>
<linearGradient id="paint23_linear_783_1143" x1="157" y1="197.5" x2="492.865" y2="197.5" gradientUnits="userSpaceOnUse">
<stop stop-color="#F7AFAF"/>
<stop offset="1" stop-color="#FBD4D4" stop-opacity="0.61"/>
</linearGradient>
<linearGradient id="paint24_linear_783_1143" x1="56" y1="279" x2="208.573" y2="279" gradientUnits="userSpaceOnUse">
<stop stop-color="#F07676" stop-opacity="0.16"/>
<stop offset="1" stop-color="#E0F2FE" stop-opacity="0.16"/>
</linearGradient>
<linearGradient id="paint25_linear_783_1143" x1="56" y1="279" x2="212.315" y2="279" gradientUnits="userSpaceOnUse">
<stop stop-color="#FDF0F0"/>
<stop offset="1" stop-color="#FBD4D4" stop-opacity="0.61"/>
</linearGradient>
<linearGradient id="paint26_linear_783_1143" x1="72" y1="279" x2="188" y2="279" gradientUnits="userSpaceOnUse">
<stop stop-color="#C70F0F"/>
<stop offset="1" stop-color="#87310C"/>
</linearGradient>
<linearGradient id="paint27_linear_783_1143" x1="1082" y1="279" x2="1261.38" y2="279" gradientUnits="userSpaceOnUse">
<stop stop-color="#A7F3D0" stop-opacity="0.16"/>
<stop offset="1" stop-color="#A7F3D0" stop-opacity="0.5"/>
</linearGradient>
<linearGradient id="paint28_linear_783_1143" x1="1082" y1="279" x2="1265.78" y2="279" gradientUnits="userSpaceOnUse">
<stop stop-color="#A7F0CE"/>
<stop offset="1" stop-color="#F7FEFA" stop-opacity="0.61"/>
</linearGradient>
<linearGradient id="paint29_linear_783_1143" x1="1098" y1="279" x2="1240" y2="279" gradientUnits="userSpaceOnUse">
<stop stop-color="#062D1B"/>
<stop offset="1" stop-color="#060D2D"/>
</linearGradient>
<linearGradient id="paint30_linear_783_1143" x1="815" y1="279.5" x2="1083" y2="279.5" gradientUnits="userSpaceOnUse">
<stop stop-color="#A5F2CE" stop-opacity="0.8"/>
<stop offset="1" stop-color="#A5F2CE" stop-opacity="0.8"/>
</linearGradient>
<linearGradient id="paint31_linear_783_1143" x1="203" y1="279.5" x2="514.573" y2="279.5" gradientUnits="userSpaceOnUse">
<stop stop-color="#F7AFAF"/>
<stop offset="1" stop-color="#FBD4D4" stop-opacity="0.61"/>
</linearGradient>
<linearGradient id="paint32_linear_783_1143" x1="1137" y1="361" x2="1317.41" y2="361" gradientUnits="userSpaceOnUse">
<stop stop-color="#A7F3D0" stop-opacity="0.16"/>
<stop offset="1" stop-color="#A7F3D0" stop-opacity="0.5"/>
</linearGradient>
<linearGradient id="paint33_linear_783_1143" x1="1137" y1="361" x2="1321.83" y2="361" gradientUnits="userSpaceOnUse">
<stop stop-color="#A7F0CE"/>
<stop offset="1" stop-color="#F7FEFA" stop-opacity="0.61"/>
</linearGradient>
<linearGradient id="paint34_linear_783_1143" x1="1153" y1="361" x2="1296" y2="361" gradientUnits="userSpaceOnUse">
<stop stop-color="#062D1B"/>
<stop offset="1" stop-color="#060D2D"/>
</linearGradient>
<linearGradient id="paint35_linear_783_1143" x1="0" y1="361" x2="210.303" y2="361" gradientUnits="userSpaceOnUse">
<stop stop-color="#F07676" stop-opacity="0.16"/>
<stop offset="1" stop-color="#E0F2FE" stop-opacity="0.16"/>
</linearGradient>
<linearGradient id="paint36_linear_783_1143" x1="0" y1="361" x2="215.461" y2="361" gradientUnits="userSpaceOnUse">
<stop stop-color="#FDF0F0"/>
<stop offset="1" stop-color="#FBD4D4" stop-opacity="0.61"/>
</linearGradient>
<linearGradient id="paint37_linear_783_1143" x1="16" y1="361" x2="188" y2="361" gradientUnits="userSpaceOnUse">
<stop stop-color="#C70F0F"/>
<stop offset="1" stop-color="#87310C"/>
</linearGradient>
<linearGradient id="paint38_linear_783_1143" x1="721" y1="361.5" x2="1138" y2="361.5" gradientUnits="userSpaceOnUse">
<stop stop-color="#A5F2CE" stop-opacity="0.8"/>
<stop offset="1" stop-color="#A5F2CE" stop-opacity="0.8"/>
</linearGradient>
<linearGradient id="paint39_linear_783_1143" x1="203" y1="361.5" x2="613.854" y2="361.5" gradientUnits="userSpaceOnUse">
<stop stop-color="#F7AFAF"/>
<stop offset="1" stop-color="#FBD4D4" stop-opacity="0.61"/>
</linearGradient>
<linearGradient id="paint40_linear_783_1143" x1="646.466" y1="8" x2="644.346" y2="373.992" gradientUnits="userSpaceOnUse">
<stop stop-color="#D2F9E7" stop-opacity="0.93"/>
<stop offset="0.806913" stop-color="#CFDDFB"/>
</linearGradient>
<linearGradient id="paint41_linear_783_1143" x1="473" y1="191" x2="839" y2="191" gradientUnits="userSpaceOnUse">
<stop stop-color="#A5F2CE" stop-opacity="0.8"/>
<stop offset="0.519231" stop-color="#C8CDF9" stop-opacity="0.32"/>
<stop offset="1" stop-color="#A5F2CE" stop-opacity="0.8"/>
</linearGradient>
<linearGradient id="paint42_linear_783_1143" x1="647.399" y1="25.9023" x2="646.205" y2="355.996" gradientUnits="userSpaceOnUse">
<stop stop-color="#D2F9E7"/>
<stop offset="0.717934" stop-color="#DCE5F9"/>
</linearGradient>
<linearGradient id="paint43_linear_783_1143" x1="648.55" y1="-18" x2="647.133" y2="325.228" gradientUnits="userSpaceOnUse">
<stop stop-color="#85F0BF"/>
<stop offset="1" stop-color="#8AA8EB"/>
</linearGradient>
<linearGradient id="paint44_linear_783_1143" x1="648.584" y1="68.6782" x2="647.248" y2="401.896" gradientUnits="userSpaceOnUse">
<stop stop-color="#85F0BF"/>
<stop offset="1" stop-color="#8AA8EB"/>
</linearGradient>
<clipPath id="clip0_783_1143">
<rect x="490.902" y="25.9023" width="330.196" height="330.196" rx="165.098" fill="white"/>
</clipPath>
</defs>
</svg>
