<svg width="32" height="32" viewBox="0 0 32 32" fill="none" xmlns="http://www.w3.org/2000/svg">
<rect x="0.5" y="0.5" width="31" height="31" rx="3.5" fill="#0D0D0D"/>
<rect x="0.5" y="0.5" width="31" height="31" rx="3.5" stroke="#484848"/>
<path d="M24.25 6.25H7.75C7.35218 6.25 6.97064 6.40804 6.68934 6.68934C6.40804 6.97064 6.25 7.35218 6.25 7.75V24.25C6.25 24.6478 6.40804 25.0294 6.68934 25.3107C6.97064 25.592 7.35218 25.75 7.75 25.75H24.25C24.6478 25.75 25.0294 25.592 25.3107 25.3107C25.592 25.0294 25.75 24.6478 25.75 24.25V7.75C25.75 7.35218 25.592 6.97064 25.3107 6.68934C25.0294 6.40804 24.6478 6.25 24.25 6.25ZM24.25 24.25H7.75V7.75H24.25V24.25ZM13 14.5V20.5C13 20.6989 12.921 20.8897 12.7803 21.0303C12.6397 21.171 12.4489 21.25 12.25 21.25C12.0511 21.25 11.8603 21.171 11.7197 21.0303C11.579 20.8897 11.5 20.6989 11.5 20.5V14.5C11.5 14.3011 11.579 14.1103 11.7197 13.9697C11.8603 13.829 12.0511 13.75 12.25 13.75C12.4489 13.75 12.6397 13.829 12.7803 13.9697C12.921 14.1103 13 14.3011 13 14.5ZM21.25 17.125V20.5C21.25 20.6989 21.171 20.8897 21.0303 21.0303C20.8897 21.171 20.6989 21.25 20.5 21.25C20.3011 21.25 20.1103 21.171 19.9697 21.0303C19.829 20.8897 19.75 20.6989 19.75 20.5V17.125C19.75 16.6277 19.5525 16.1508 19.2008 15.7992C18.8492 15.4475 18.3723 15.25 17.875 15.25C17.3777 15.25 16.9008 15.4475 16.5492 15.7992C16.1975 16.1508 16 16.6277 16 17.125V20.5C16 20.6989 15.921 20.8897 15.7803 21.0303C15.6397 21.171 15.4489 21.25 15.25 21.25C15.0511 21.25 14.8603 21.171 14.7197 21.0303C14.579 20.8897 14.5 20.6989 14.5 20.5V14.5C14.5009 14.3163 14.5693 14.1393 14.692 14.0026C14.8148 13.866 14.9834 13.7791 15.166 13.7585C15.3485 13.7379 15.5323 13.7851 15.6824 13.891C15.8325 13.9969 15.9385 14.1542 15.9803 14.3331C16.4877 13.9889 17.0792 13.7895 17.6914 13.7561C18.3036 13.7228 18.9133 13.8568 19.455 14.1438C19.9968 14.4308 20.4501 14.86 20.7664 15.3852C21.0826 15.9105 21.2498 16.5119 21.25 17.125ZM13.375 11.875C13.375 12.0975 13.309 12.315 13.1854 12.5C13.0618 12.685 12.8861 12.8292 12.6805 12.9144C12.475 12.9995 12.2488 13.0218 12.0305 12.9784C11.8123 12.935 11.6118 12.8278 11.4545 12.6705C11.2972 12.5132 11.19 12.3127 11.1466 12.0945C11.1032 11.8762 11.1255 11.65 11.2106 11.4445C11.2958 11.2389 11.44 11.0632 11.625 10.9396C11.81 10.816 12.0275 10.75 12.25 10.75C12.5484 10.75 12.8345 10.8685 13.0455 11.0795C13.2565 11.2905 13.375 11.5766 13.375 11.875Z" fill="white"/>
</svg>
