<svg width="18" height="18" viewBox="0 0 18 18" fill="none" xmlns="http://www.w3.org/2000/svg">
<path d="M15.3861 8.99986C17.697 5.75517 18.8755 2.40174 17.2367 0.762986C15.598 -0.875764 12.2445 0.302674 8.99986 2.61361C5.75517 0.302674 2.40174 -0.875764 0.762986 0.762986C-0.875764 2.40174 0.302674 5.75517 2.61361 8.99986C0.302674 12.2445 -0.875764 15.598 0.762986 17.2367C1.2908 17.7645 1.9958 17.9999 2.81705 17.9999C4.54955 17.9999 6.79955 16.9527 9.00455 15.3861C11.2002 16.9527 13.4502 17.9999 15.1874 17.9999C16.0086 17.9999 16.7146 17.7636 17.2414 17.2367C18.8755 15.598 17.697 12.2445 15.3861 8.99986ZM16.1764 1.8233C16.8927 2.53955 16.4089 4.8608 14.4402 7.7558C13.8173 6.98478 13.1542 6.24719 12.4536 5.54611C11.7525 4.84645 11.0149 4.18428 10.2439 3.56236C13.1389 1.59361 15.4602 1.10611 16.1764 1.8233ZM13.527 8.99986C12.8636 9.83908 12.1512 10.6383 11.3933 11.3933C10.6383 12.1512 9.83908 12.8636 8.99986 13.527C8.16064 12.8636 7.36143 12.1512 6.60642 11.3933C5.84857 10.6383 5.13607 9.83908 4.47267 8.99986C5.80365 7.32264 7.32264 5.80365 8.99986 4.47267C9.83908 5.13607 10.6383 5.84857 11.3933 6.60642C12.1512 7.36143 12.8636 8.16064 13.527 8.99986ZM1.8233 1.8233C2.02955 1.61611 2.36986 1.50924 2.81892 1.50924C3.92705 1.50924 5.69611 2.15611 7.75486 3.56236C6.98465 4.18479 6.2474 4.84694 5.54611 5.54611C4.84645 6.24727 4.18428 6.98486 3.56236 7.7558C1.59361 4.8608 1.10705 2.53955 1.8233 1.8233ZM1.8233 16.1764C1.10705 15.4602 1.59361 13.1389 3.56236 10.2439C4.18519 11.0149 4.84831 11.7525 5.54892 12.4536C6.24962 13.1527 6.98625 13.8149 7.7558 14.4374C4.8608 16.4061 2.53955 16.8936 1.8233 16.1764ZM16.1764 16.1764C15.4602 16.8936 13.1389 16.4089 10.2439 14.4402C11.0145 13.8168 11.7521 13.1537 12.4536 12.4536C13.1533 11.7525 13.8154 11.0149 14.4374 10.2439C16.4061 13.1389 16.8927 15.4602 16.1764 16.1764ZM10.1249 8.99986C10.1249 9.22237 10.0589 9.43987 9.93526 9.62488C9.81165 9.80988 9.63595 9.95408 9.43038 10.0392C9.22481 10.1244 8.99861 10.1467 8.78038 10.1032C8.56216 10.0598 8.3617 9.95269 8.20437 9.79536C8.04703 9.63802 7.93989 9.43757 7.89648 9.21934C7.85307 9.00111 7.87535 8.77491 7.9605 8.56934C8.04565 8.36378 8.18984 8.18807 8.37485 8.06446C8.55985 7.94084 8.77736 7.87486 8.99986 7.87486C9.29823 7.87486 9.58438 7.99339 9.79536 8.20437C10.0063 8.41534 10.1249 8.70149 10.1249 8.99986Z" fill="url(#paint0_linear_2145_98)"/>
<defs>
<linearGradient id="paint0_linear_2145_98" x1="-5.00033" y1="9.00044" x2="18.0012" y2="8.99995" gradientUnits="userSpaceOnUse">
<stop stop-color="#03160E"/>
<stop offset="1" stop-color="#083620"/>
</linearGradient>
</defs>
</svg>
