<svg width="40" height="40" viewBox="0 0 40 40" fill="none" xmlns="http://www.w3.org/2000/svg">
<path d="M34.83 0H5.16997C2.31467 0 0 2.31467 0 5.16997V34.83C0 37.6853 2.31467 40 5.16997 40H34.83C37.6853 40 40 37.6853 40 34.83V5.16997C40 2.31467 37.6853 0 34.83 0Z" fill="white"/>
<path d="M31.4961 3.64848V8.84247C30.1555 8.84728 27.6651 9.07631 25.4981 10.758C23.5714 12.2539 22.5591 14.3872 22.0434 15.4731C21.8737 15.8319 21.9089 15.795 20.9656 18.0325C20.6004 18.8973 19.79 20.8577 19.4857 21.5047C18.4719 23.6637 17.2578 26.2519 14.8683 27.972C13.9938 28.6014 11.9245 29.8619 8.50189 29.8939V24.5974C9.57977 24.5109 10.656 24.2963 11.3752 23.7069C12.5139 22.7748 13.3692 21.5896 14.0787 20.2507H10.3037V16.8825H15.5329C15.7587 16.2707 15.9782 15.6461 16.2008 15.015C16.2761 14.802 16.3497 14.589 16.4266 14.3776C17.5734 11.1376 19.7259 8.29312 22.4887 6.37441C25.1826 4.50213 28.2785 3.5668 31.4945 3.64848H31.4961Z" fill="#0C1855"/>
<path d="M27.529 16.8829H31.4961V20.2511H26.0219C25.8521 20.6338 25.6663 21.0519 25.4629 21.5083C22.8747 27.2725 21.3212 29.4234 20.2577 30.6519C18.3918 32.8076 16.4539 34.0136 16.0855 34.2346C14.4071 35.234 12.0079 35.7578 9.36361 35.7578C9.08013 35.7578 8.79184 35.753 8.50195 35.7386V31.8146C9.35881 31.8707 11.7436 31.9364 14.0195 30.7368C15.5506 29.9295 16.8063 28.7267 17.8729 27.3782C19.0421 25.9015 20.0063 24.2935 20.7574 22.567C21.5454 20.7588 22.2821 18.9313 23.0877 17.1311C23.5746 16.0453 24.0647 14.9209 24.7374 13.9247C25.4309 12.8965 26.3182 12.0124 27.4025 11.4022C27.979 11.0787 28.5924 10.8192 29.2267 10.6318C29.7712 10.4717 30.5448 10.2987 31.4961 10.2715V14.2595C30.1684 14.5494 29.0873 15.0811 28.2673 15.8483C27.9758 16.1221 27.8173 16.3031 27.529 16.8829Z" fill="#0C1855"/>
</svg>
